<?xml version="1.0" standalone="no"?>
<!DOCTYPE svg PUBLIC "-//W3C//DTD SVG 20010904//EN"
 "http://www.w3.org/TR/2001/REC-SVG-20010904/DTD/svg10.dtd">
<svg version="1.0" xmlns="http://www.w3.org/2000/svg"
 width="1024.000000pt" height="1024.000000pt" viewBox="0 0 1024.000000 1024.000000"
 preserveAspectRatio="xMidYMid meet">
<metadata>
Created by potrace 1.16, written by Peter Selinger 2001-2019
</metadata>
<g transform="translate(0.000000,1024.000000) scale(0.100000,-0.100000)"
fill="#000000" stroke="none">
<path d="M8360 9524 c-36 -8 -76 -12 -90 -9 -19 4 -21 3 -10 -5 13 -8 12 -10
-3 -10 -10 0 -65 -15 -123 -34 -58 -19 -113 -32 -122 -29 -9 4 -13 2 -9 -4 6
-10 -148 -79 -170 -77 -7 1 -11 -2 -8 -6 6 -10 -116 -75 -134 -72 -7 2 -11 -1
-7 -6 3 -5 -21 -24 -53 -42 -32 -19 -67 -47 -79 -64 -12 -17 -22 -26 -22 -20
0 7 7 17 15 24 23 19 18 33 -11 26 -16 -4 -23 -3 -19 3 3 7 0 8 -9 5 -9 -3
-14 -11 -13 -17 1 -7 -6 -11 -16 -10 -10 0 -16 -2 -13 -5 9 -8 -76 -57 -93
-54 -7 2 -10 -1 -7 -7 7 -11 -27 -34 -38 -26 -3 3 -4 2 -2 -1 7 -9 -45 -55
-54 -49 -4 3 -7 -2 -6 -11 1 -10 -15 -21 -44 -31 -24 -8 -63 -30 -86 -49 -22
-19 -44 -31 -47 -27 -4 3 -7 -1 -7 -10 0 -10 -12 -18 -35 -23 -21 -4 -35 -12
-35 -21 0 -8 5 -11 13 -7 7 4 9 3 4 -2 -5 -5 -12 -9 -15 -9 -4 0 -12 -4 -19
-8 -6 -4 -15 -2 -19 4 -5 8 -3 9 6 4 9 -5 11 -4 6 4 -11 17 -25 4 -21 -20 3
-12 -2 -22 -13 -26 -9 -4 -22 -13 -27 -21 -6 -7 -15 -12 -20 -10 -6 2 -11 -1
-13 -7 -8 -24 -37 -45 -64 -45 -17 0 -27 -4 -23 -10 4 -6 12 -7 18 -4 7 4 -19
-25 -57 -64 -38 -39 -73 -69 -77 -67 -4 3 -10 -2 -13 -11 -3 -8 -11 -12 -17
-8 -8 4 -9 3 -5 -5 6 -9 11 -9 22 -1 8 8 5 -10 -10 -47 -30 -73 -56 -222 -57
-327 l-1 -81 -15 65 c-34 154 -27 264 23 332 27 36 31 68 9 68 -8 0 -15 -4
-15 -10 0 -5 -8 -6 -17 -3 -13 5 -15 2 -10 -12 6 -15 5 -16 -8 -5 -9 8 -15 8
-15 2 0 -6 4 -14 10 -17 5 -3 -7 -24 -27 -45 -30 -34 -39 -38 -52 -27 -14 10
-14 10 -3 -5 11 -14 10 -18 -5 -30 -10 -7 -33 -32 -52 -56 -18 -23 -37 -39
-42 -36 -5 3 -8 2 -7 -3 4 -14 -13 -53 -21 -49 -4 3 -8 0 -8 -7 0 -7 -8 -61
-17 -121 -16 -109 -12 -214 14 -316 4 -19 11 -60 14 -90 l6 -55 -20 70 -20 70
5 -60 c6 -90 -12 -37 -41 120 -28 149 -25 212 12 288 14 26 20 47 14 47 -5 0
-10 -5 -10 -11 0 -5 -4 -8 -9 -4 -5 3 -12 -4 -16 -15 -3 -11 -15 -20 -25 -20
-12 0 -18 -7 -17 -20 1 -18 2 -18 21 -2 19 17 19 17 1 -10 -9 -16 -21 -28 -27
-28 -17 0 -98 -185 -114 -259 -11 -53 -14 -113 -11 -213 3 -86 1 -135 -5 -126
-30 44 -78 152 -91 207 -9 35 -18 65 -20 67 -4 5 -61 -118 -72 -153 -4 -13 -2
-23 4 -23 5 0 13 16 17 35 3 19 11 38 16 41 6 4 8 -4 4 -22 -4 -19 -1 -36 8
-49 9 -11 16 -29 16 -40 0 -11 18 -56 41 -100 34 -67 59 -145 46 -145 -9 0
-81 114 -92 147 -7 21 -17 37 -22 35 -4 -1 -11 14 -15 35 -3 21 -5 -32 -4
-117 1 -127 5 -161 20 -188 9 -19 16 -36 13 -38 -2 -3 -26 38 -52 91 -35 70
-50 112 -55 158 -6 62 -6 62 -14 23 -9 -41 2 -106 35 -210 l19 -59 -27 24 -27
24 18 -29 c10 -16 12 -25 6 -21 -10 6 -11 1 -6 -21 7 -28 7 -28 -8 -9 l-15 20
0 -20 c0 -11 3 -37 8 -57 5 -22 5 -36 0 -32 -5 3 -9 12 -9 21 0 9 -10 31 -21
50 -12 20 -26 49 -30 67 -7 24 -8 19 -5 -24 2 -30 14 -77 27 -105 34 -72 34
-74 3 -30 -15 22 -31 42 -35 45 -4 3 -11 23 -15 45 -4 22 -9 35 -11 29 -3 -10
24 -131 43 -191 3 -11 -4 -7 -20 12 -29 34 -33 28 -11 -15 9 -17 13 -30 10
-30 -3 0 -18 25 -32 56 -22 50 -25 66 -20 128 4 56 3 66 -5 46 -6 -14 -11 -59
-11 -100 0 -64 5 -85 32 -138 17 -34 27 -62 21 -62 -6 0 -9 -12 -8 -27 2 -21
-2 -28 -17 -30 -45 -7 -135 -59 -145 -83 -8 -19 -9 -8 -6 50 l4 75 -13 -55
-13 -55 -1 70 c-1 78 -16 74 -27 -8 -4 -26 -11 -50 -15 -53 -5 -3 -9 0 -9 5 0
20 -15 10 -44 -29 -17 -22 -38 -40 -47 -40 -10 0 -21 -5 -24 -10 -4 -6 -11 -7
-17 -4 -6 4 -16 0 -22 -8 -18 -25 -87 -63 -157 -88 -60 -22 -65 -26 -62 -49
l3 -26 -9 25 c-12 35 -70 150 -76 150 -3 0 4 -18 15 -40 31 -60 24 -62 -10 -2
-17 29 -28 57 -25 63 4 5 3 8 -2 7 -4 -1 -26 15 -47 35 -55 51 -70 47 -18 -5
50 -49 108 -164 116 -228 4 -32 3 -39 -3 -25 -7 14 -10 15 -10 5 -1 -13 -2
-13 -11 0 -7 11 -10 -1 -10 -40 0 -30 -7 -66 -15 -80 -8 -14 -15 -20 -15 -15
-1 12 -31 -53 -34 -75 -2 -8 -6 -14 -9 -12 -97 45 -174 70 -121 39 80 -47 125
-111 123 -175 -1 -22 -4 -18 -14 18 -10 33 -13 38 -14 19 -1 -14 -8 -34 -16
-45 -13 -18 -14 -17 -15 17 0 19 -7 44 -16 55 -8 10 -12 13 -8 5 4 -8 9 -40
11 -70 5 -82 5 -94 -4 -100 -4 -3 -21 -34 -37 -67 -28 -61 -99 -151 -115 -147
-9 2 -26 -30 -58 -107 -24 -58 -57 -96 -104 -121 -22 -11 -39 -24 -39 -29 0
-17 -20 -11 -45 15 -22 21 -25 33 -25 98 0 40 4 98 10 128 5 30 21 127 34 216
17 112 37 198 64 280 49 143 63 232 61 380 -2 107 -1 115 25 154 22 32 45 50
109 80 45 22 71 37 57 33 -75 -20 -161 -71 -187 -111 -15 -22 -19 -59 -25
-218 -6 -202 -3 -185 -77 -388 -11 -33 -28 -111 -37 -175 -9 -65 -20 -126 -25
-137 -10 -22 -27 -125 -35 -211 -3 -40 -11 -63 -24 -74 -11 -10 -20 -21 -20
-25 0 -24 -150 -128 -177 -124 -5 1 -10 0 -13 -1 -3 -1 -16 -4 -30 -5 -14 -2
-50 -10 -80 -20 -30 -9 -72 -19 -93 -22 -34 -5 -38 -8 -34 -28 5 -28 -20 -38
-49 -22 -24 14 -72 9 -98 -9 -11 -8 -35 -14 -53 -14 -31 0 -33 -2 -31 -29 2
-26 5 -28 28 -21 14 5 79 20 145 35 66 15 133 31 149 36 16 5 41 8 55 8 22 -1
20 -3 -9 -9 -129 -28 -189 -42 -295 -70 -66 -17 -160 -40 -210 -50 -49 -11
-99 -23 -110 -26 -33 -11 -9 7 32 22 l38 15 -42 -5 c-24 -2 -43 0 -43 6 0 5
-5 6 -10 3 -6 -4 -8 -10 -5 -15 3 -4 -14 -11 -37 -15 -24 -4 -48 -12 -55 -17
-7 -5 -17 -7 -23 -3 -5 3 -10 1 -10 -4 0 -6 8 -11 18 -12 9 0 -5 -7 -31 -14
-27 -7 -69 -12 -93 -10 -28 2 -46 -1 -51 -9 -10 -16 -47 -36 -65 -36 -7 1 1 7
17 14 30 14 30 14 4 12 -15 -1 -34 -10 -44 -19 -28 -29 -40 -19 -13 11 27 28
58 107 58 145 -1 12 -9 -1 -19 -30 -25 -72 -59 -118 -98 -132 -18 -7 -31 -16
-28 -21 3 -4 -2 -11 -11 -14 -22 -8 -22 -9 -16 21 4 20 2 25 -9 21 -8 -4 -21
-9 -31 -13 -11 -4 -18 -1 -21 12 -4 16 -5 16 -6 1 0 -10 -5 -18 -9 -18 -10 0
-9 41 1 57 5 7 0 9 -14 6 -11 -3 -18 -11 -15 -19 6 -16 -19 -38 -34 -29 -5 3
-10 1 -10 -4 0 -6 7 -11 15 -11 13 0 13 -3 3 -20 -7 -10 -15 -15 -18 -11 -9
15 -45 17 -56 3 -9 -12 -15 -12 -42 2 -39 20 -51 21 -26 0 10 -8 14 -13 7 -10
-6 4 -18 -2 -25 -12 -14 -20 -58 -47 -58 -36 0 3 8 18 18 32 25 36 38 63 15
32 -67 -92 -133 -128 -249 -137 -95 -8 -168 17 -227 79 -69 70 -91 125 -91
223 -1 126 44 191 163 239 52 21 81 26 150 26 121 0 171 -17 195 -64 15 -31
16 -44 8 -78 -6 -24 -7 -50 -2 -63 11 -28 5 -35 -32 -35 -18 0 -28 -5 -28 -15
0 -10 -10 -15 -34 -15 -18 0 -39 -7 -46 -15 -7 -8 -19 -15 -26 -15 -8 0 -14
-7 -14 -15 0 -8 -7 -15 -15 -15 -8 0 -14 -5 -13 -12 2 -8 -15 -15 -45 -18
l-48 -6 30 23 c102 80 94 231 -15 282 -46 22 -48 22 -91 6 -67 -26 -96 -78
-101 -182 -3 -51 0 -88 8 -100 9 -15 10 -12 6 17 l-5 35 19 -36 c11 -21 29
-39 42 -42 14 -4 28 -19 35 -37 6 -16 18 -30 26 -30 9 0 30 -18 47 -40 23 -29
39 -40 58 -40 15 0 34 -5 42 -10 12 -8 10 -10 -10 -10 -15 0 -21 -3 -14 -10
17 -17 144 17 183 48 69 56 135 225 135 347 0 151 -157 310 -342 346 -85 16
-231 2 -217 -21 3 -5 -3 -6 -14 -3 -10 3 -22 0 -25 -6 -5 -7 0 -9 11 -5 14 5
15 4 4 -4 -8 -6 -19 -8 -26 -6 -6 3 -29 -12 -50 -31 l-40 -37 35 22 35 21 -30
-23 c-67 -51 -102 -98 -119 -156 -18 -66 -21 -193 -6 -273 10 -54 81 -212 100
-224 14 -9 13 8 -2 23 -7 7 -9 12 -6 12 4 0 17 -15 29 -32 16 -22 17 -28 6
-19 -9 7 -17 9 -17 4 0 -15 23 -33 41 -33 10 0 34 -20 55 -45 20 -25 42 -44
48 -42 6 2 26 -7 45 -20 36 -24 67 -31 55 -11 -4 7 -3 8 4 4 41 -25 193 -24
302 2 47 11 98 18 114 15 19 -4 27 -2 23 4 -7 11 50 26 74 20 8 -2 11 -2 7 0
-16 9 -7 21 20 29 36 11 82 12 76 2 -8 -13 6 -9 21 6 8 8 40 21 72 31 114 32
162 49 158 53 -2 2 -36 -3 -75 -13 -39 -10 -74 -15 -77 -11 -4 3 3 6 13 6 11
0 24 4 29 9 9 8 70 26 165 48 14 3 32 12 42 20 16 15 149 63 173 63 7 0 15 5
17 11 2 6 36 14 76 17 45 3 69 8 65 15 -4 6 2 8 15 5 12 -4 40 2 62 13 22 11
55 22 73 25 17 4 51 12 74 20 23 7 73 18 110 24 37 6 72 15 78 20 5 4 37 13
70 19 33 6 71 12 85 15 14 2 71 16 127 30 107 27 143 32 143 17 0 -5 16 -5 37
-1 20 5 39 8 42 7 3 -1 17 5 29 12 42 23 34 4 -25 -60 -32 -35 -83 -95 -113
-134 -29 -38 -59 -73 -66 -78 -15 -8 -41 -86 -47 -140 -3 -21 -16 -55 -30 -75
-38 -58 -86 -152 -77 -152 5 0 12 5 15 10 3 6 14 10 24 10 10 0 36 13 57 28
21 16 84 59 139 96 115 78 147 105 139 117 -3 5 -1 9 4 9 9 0 26 -31 20 -34
-2 -1 -15 -8 -30 -15 -38 -20 -99 -74 -73 -66 20 6 20 6 -1 -13 -11 -11 -31
-25 -45 -32 -21 -10 -20 -8 6 15 17 14 25 25 20 23 -21 -6 -125 -73 -125 -80
0 -10 110 31 130 47 18 16 68 35 185 72 85 26 88 28 55 33 -20 4 -50 1 -69 -7
-44 -17 -75 -16 -35 1 27 12 34 22 42 62 13 60 7 71 -8 15 -6 -23 -15 -41 -20
-41 -29 0 14 121 76 216 32 47 34 23 3 -37 -16 -34 -29 -63 -27 -65 4 -3 92
139 117 189 14 28 30 34 47 17 7 -7 19 -8 37 -1 35 14 35 6 0 -13 -27 -15 -27
-15 -5 -16 13 0 20 -4 17 -10 -6 -9 73 -94 97 -103 7 -3 0 -6 -17 -7 l-30 -2
34 -10 c24 -6 42 -6 58 1 32 15 70 14 76 -1 2 -7 6 -17 8 -23 5 -13 62 -44 71
-38 4 2 5 -2 2 -10 -4 -10 5 -18 28 -25 72 -22 138 -21 256 2 132 27 212 31
310 15 84 -13 172 -11 190 3 8 7 62 12 135 14 118 1 170 7 232 24 17 5 51 11
78 15 26 3 47 11 47 16 0 6 -10 8 -22 4 -21 -5 -22 -5 -4 6 11 6 38 11 60 11
23 0 56 6 74 15 25 11 61 14 143 11 60 -1 110 0 112 4 7 19 211 8 497 -27 l35
-4 -35 9 c-37 11 -136 31 -157 32 -7 1 -13 5 -13 10 0 11 23 20 55 22 17 1 23
6 20 15 -4 10 1 12 21 7 17 -5 23 -3 19 4 -4 6 5 10 22 10 15 0 83 16 149 34
67 19 182 46 255 61 74 15 161 33 194 40 33 8 110 19 170 26 114 12 143 18 84
20 -82 2 -150 -3 -229 -17 -150 -26 -152 -26 -145 -15 4 7 -6 11 -27 12 l-33
1 28 10 c28 10 37 28 15 28 -7 0 -4 6 7 12 28 17 49 38 36 38 -6 0 -11 6 -11
14 0 8 -8 17 -17 19 -16 4 -16 5 1 6 13 1 17 6 13 21 -3 11 -2 20 3 20 4 0 19
18 34 40 26 40 37 120 16 120 -5 0 -10 7 -10 15 0 19 -10 19 -39 -1 -12 -9
-45 -24 -72 -34 l-49 -18 23 39 c13 21 36 53 51 70 15 17 25 33 22 36 -3 3
-49 -38 -102 -91 -53 -53 -99 -96 -103 -96 -4 0 -7 9 -8 20 -1 11 2 20 8 20
11 0 12 37 0 44 -4 3 -16 -3 -26 -14 -9 -10 -24 -19 -33 -19 -60 -2 -93 -9
-109 -22 -25 -22 -51 -30 -59 -18 -4 7 -19 -1 -38 -18 -17 -16 -39 -35 -49
-42 -15 -12 -17 -12 -11 4 6 16 3 17 -22 12 -16 -3 -38 -9 -48 -13 -14 -5 -17
-4 -12 4 4 7 2 12 -3 12 -6 0 -11 -4 -11 -9 0 -5 -24 -18 -52 -29 -77 -30 -98
-35 -98 -23 0 6 7 11 16 11 40 0 214 115 214 141 0 13 -26 -2 -65 -36 -52 -46
-259 -135 -314 -135 -8 0 -10 9 -7 23 3 12 3 16 0 10 -6 -14 -58 -15 -109 -4
l-30 7 30 8 c92 23 209 100 257 169 20 29 20 30 2 15 -27 -24 -37 -23 -29 3 4
13 -9 3 -36 -26 -63 -68 -190 -124 -284 -124 -50 0 -55 2 -39 13 11 7 30 16
44 19 64 16 254 136 239 151 -11 11 -39 -5 -39 -23 0 -11 -3 -12 -8 -4 -6 9
-18 6 -45 -13 -58 -39 -140 -74 -159 -68 -10 3 -18 1 -18 -5 0 -5 -8 -10 -17
-9 -10 0 -34 -3 -53 -8 -30 -6 -33 -6 -20 7 9 8 40 27 70 43 72 38 139 88 140
104 0 6 3 12 8 12 4 0 13 9 20 20 14 22 1 27 -20 7 -7 -7 -34 -28 -60 -45 -27
-18 -48 -36 -48 -40 0 -21 -89 -35 -255 -42 -161 -7 -191 -11 -290 -40 -60
-18 -182 -62 -270 -97 -137 -56 -348 -133 -364 -133 -3 0 4 7 15 15 17 13 16
14 -13 5 -18 -5 -33 -7 -33 -5 0 2 -19 -2 -41 -10 -23 -9 -81 -18 -128 -22
-72 -6 -80 -9 -51 -15 20 -4 -1 -5 -49 -2 -95 5 -142 25 -189 78 -89 101 -78
305 21 380 32 25 199 106 267 131 20 7 87 38 150 68 151 74 289 112 615 172
133 24 242 60 311 102 117 72 273 178 273 186 2 19 -149 -74 -211 -132 -16
-13 -28 -22 -28 -18 0 17 44 116 64 142 37 49 41 61 12 35 -16 -14 -40 -45
-55 -70 -14 -25 -33 -46 -41 -48 -8 -2 -19 -11 -24 -20 -9 -15 -11 -14 -16 8
-4 14 -3 38 2 54 8 31 84 116 103 116 6 0 18 9 28 20 13 15 29 20 68 20 57 0
206 61 194 80 -7 11 34 31 48 23 4 -2 7 0 7 6 0 5 13 12 29 16 44 9 333 13
357 5 11 -5 90 -13 175 -20 104 -7 180 -19 234 -35 114 -34 200 -53 280 -65
80 -11 251 -12 309 -2 23 4 -20 7 -105 7 -168 1 -268 18 -440 75 -125 42 -337
141 -355 165 -7 9 -16 14 -21 13 -19 -6 -154 65 -140 74 7 5 1 8 -18 8 -32 0
-102 37 -91 48 4 3 12 0 17 -8 8 -12 9 -11 7 5 -3 14 -11 19 -26 18 -14 -2
-21 1 -17 7 3 6 16 10 28 10 12 0 31 8 42 17 16 13 17 15 3 10 -28 -10 -21 1
11 17 16 9 32 12 36 8 5 -4 5 -2 2 4 -9 16 42 62 52 46 4 -7 7 3 8 23 1 19 -3
35 -9 35 -5 0 -6 -4 -3 -10 3 -5 -3 -10 -14 -10 -10 0 -22 6 -24 13 -4 10 -6
10 -6 0 -1 -7 -10 -13 -22 -13 -17 0 -18 2 -7 13 7 7 24 18 38 24 25 12 25 12
-5 8 -29 -5 -29 -5 -6 5 14 6 31 8 38 5 8 -2 12 -1 8 4 -5 9 92 47 108 43 4
-1 7 3 7 9 0 5 4 8 9 5 5 -3 12 1 15 9 5 14 69 58 89 61 4 1 10 3 15 4 4 1 11
2 16 1 5 -1 4 4 -3 12 -10 13 -2 23 43 58 31 24 52 47 48 51 -5 5 -33 3 -62
-4 -42 -10 -54 -10 -58 0 -2 7 -8 12 -13 12 -6 0 -8 -4 -4 -9 3 -5 1 -13 -5
-16 -6 -4 -9 -1 -8 7 2 8 -4 12 -15 10 -18 -3 -18 -3 0 22 10 14 25 25 33 26
13 0 13 -1 0 -10 -12 -8 -12 -10 5 -10 11 0 27 5 35 10 12 8 12 10 -5 11 l-20
0 20 9 c11 5 26 9 34 9 11 1 11 -2 0 -16 -13 -16 -12 -17 3 -4 10 7 16 17 13
21 -5 8 94 56 108 52 5 -1 6 2 3 7 -6 9 64 68 77 63 4 -1 7 4 7 12 0 8 15 27
33 43 17 15 49 49 71 76 21 26 43 44 49 40 5 -3 7 -1 4 4 -4 6 7 28 23 48 17
21 30 39 30 41 0 1 -24 1 -52 -1 -29 -2 -53 -5 -53 -5 0 -1 -8 -3 -17 -5 -10
-2 -18 1 -18 7 0 6 7 8 15 4 10 -3 15 1 15 12 0 12 20 25 63 42 34 14 67 25
72 25 17 1 36 16 30 25 -3 5 9 20 27 34 18 14 29 26 23 27 -42 6 -75 5 -104
-2 -19 -5 -37 -7 -39 -4 -8 8 72 36 87 30 9 -3 12 -3 8 1 -3 4 13 19 36 34 23
15 55 41 71 59 22 23 32 28 39 19 6 -9 7 -8 4 3 -7 21 42 69 69 69 15 0 16 2
5 9 -12 8 -10 16 13 45 15 20 32 36 38 36 6 0 9 3 5 6 -3 4 7 26 23 50 33 47
36 59 18 70 -7 4 -8 3 -4 -4 6 -11 -6 -16 -26 -13 -5 0 -8 -3 -8 -9 0 -5 -7
-7 -16 -3 -9 3 -19 1 -23 -4 -3 -6 -17 -13 -31 -17 -15 -5 -7 4 20 20 74 45
117 82 155 134 20 28 42 47 47 43 7 -3 8 -1 4 5 -4 7 -1 21 7 33 11 15 16 17
20 7 3 -7 6 -1 6 14 1 22 -3 26 -16 21 -13 -5 -15 -2 -10 13 7 18 7 18 -7 1
-15 -20 -62 -15 -50 4 3 6 13 8 21 5 8 -3 11 -1 8 4 -3 6 -1 10 5 10 6 0 9 3
7 8 -3 4 5 16 16 27 11 11 16 14 12 6 -5 -10 -4 -12 4 -7 6 4 9 11 6 16 -3 5
0 12 6 15 18 12 116 149 124 175 l8 24 -29 -19 c-15 -10 -42 -20 -59 -21 -22
-3 -26 -1 -15 6 8 5 23 10 33 10 9 0 17 5 17 11 0 5 -6 7 -12 4 -7 -4 2 7 21
24 19 17 38 28 43 25 5 -3 7 0 6 8 -2 7 3 12 10 11 6 -2 12 5 12 15 0 9 12 30
26 45 25 27 25 29 8 42 -14 10 -21 10 -26 2 -4 -7 -8 -7 -8 -2 0 6 14 26 30
45 16 19 30 38 30 42 0 4 7 14 16 22 8 9 18 32 21 52 5 31 2 40 -18 55 -29 23
-105 24 -199 3z m-5 -223 c-6 -4 -48 -21 -95 -36 -133 -44 -125 -39 -368 -226
-29 -22 -50 -44 -47 -50 4 -5 2 -8 -3 -7 -13 4 -151 -104 -152 -118 0 -13 -62
-60 -73 -56 -12 4 -527 -514 -608 -610 -35 -42 -103 -123 -151 -180 -48 -56
-146 -175 -218 -263 -72 -88 -148 -180 -169 -205 -21 -25 -64 -83 -96 -130
-99 -146 -217 -310 -222 -310 -2 0 -1 5 3 12 5 7 3 8 -5 4 -7 -5 -10 -15 -7
-23 3 -8 1 -11 -4 -8 -5 3 -35 -34 -66 -82 -31 -48 -65 -99 -75 -113 -10 -14
-43 -61 -74 -106 -30 -44 -66 -91 -80 -104 -13 -13 -22 -27 -19 -31 7 -12 -9
-11 -24 1 -9 7 -9 7 -2 -2 6 -7 6 -16 -1 -25 -9 -10 -8 -13 2 -13 10 0 10 -3
1 -12 -7 -7 -12 -27 -12 -45 0 -37 -6 -40 -39 -17 -17 12 -25 14 -30 5 -12
-18 -41 -1 -40 23 0 11 3 15 6 9 2 -7 9 -13 14 -13 14 0 11 27 -6 44 -14 13
-14 16 2 24 10 5 24 7 31 5 6 -3 12 0 12 5 0 5 16 27 36 48 20 22 63 79 96
127 82 122 433 587 506 672 34 39 87 104 119 145 32 41 85 107 119 145 34 39
102 118 150 176 49 58 123 146 163 195 111 132 500 523 630 633 165 140 385
315 466 370 83 58 165 104 171 98 3 -2 37 8 77 24 75 30 98 35 82 20z m-310
-766 c-23 -18 -80 -35 -117 -35 -15 0 -47 -4 -70 -10 -24 -5 -87 -17 -142 -25
-54 -8 -112 -21 -130 -29 -17 -8 -38 -17 -46 -20 -8 -4 -26 -14 -40 -22 -25
-15 -24 -15 15 -10 l40 5 -37 -18 c-52 -24 -53 -27 -5 -24 42 2 42 2 7 -6 -19
-4 -48 -15 -65 -25 l-30 -17 32 6 c18 4 39 3 48 -2 11 -6 -15 -16 -86 -32 -55
-12 -99 -24 -97 -27 3 -2 38 0 79 6 41 5 88 9 104 9 38 -1 -107 -41 -230 -64
-49 -9 -109 -23 -132 -30 -24 -7 -43 -11 -43 -9 0 8 70 39 135 60 39 12 62 23
52 23 -10 1 -16 5 -12 10 3 6 -15 3 -40 -6 -65 -22 -65 -11 0 23 31 16 70 37
88 46 40 21 32 22 -22 3 -22 -8 -41 -10 -41 -5 0 5 11 12 25 16 14 3 22 10 19
15 -6 10 11 18 121 55 39 14 79 28 90 33 72 30 97 36 384 86 79 14 146 27 149
30 3 3 8 5 11 5 3 0 -3 -7 -14 -15z m-682 -462 c-13 -2 -23 -9 -23 -14 0 -7
13 -8 33 -4 17 4 29 4 26 1 -13 -14 -376 -72 -386 -63 -2 3 22 14 54 26 54 19
55 21 18 16 l-40 -5 40 16 c22 9 69 20 105 24 69 8 210 10 173 3z m297 -93
c-74 -23 -204 -38 -405 -45 -72 -3 -170 -13 -220 -24 -103 -22 -125 -20 -39 4
33 9 77 23 99 30 22 8 72 17 110 20 39 3 95 8 125 11 43 4 52 3 40 -6 -15 -12
64 -8 220 9 89 11 99 11 70 1z m-1376 -227 c3 -64 1 -91 -6 -86 -8 4 -9 -8 -5
-38 7 -43 6 -43 -6 -14 -7 17 -22 66 -33 110 -13 57 -20 72 -22 52 -2 -15 4
-56 12 -91 26 -101 16 -108 -15 -11 -33 102 -35 133 -14 161 8 10 15 28 15 39
0 11 4 26 9 34 6 10 9 4 10 -20 0 -19 5 -47 11 -64 10 -29 10 -29 6 8 -3 21
-2 61 2 90 l6 52 13 -65 c7 -36 15 -107 17 -157z m984 143 c60 -16 57 -16 80
-17 28 -2 -109 -28 -151 -29 -27 0 -43 -7 -59 -25 -12 -14 -30 -25 -40 -25
-11 0 -16 -4 -13 -10 3 -5 15 -10 26 -10 11 0 17 -5 14 -10 -4 -7 2 -9 19 -4
15 3 26 2 26 -4 0 -11 -83 -32 -124 -32 -13 0 -27 -7 -30 -16 -5 -14 -1 -16
32 -11 20 4 51 2 67 -2 28 -9 27 -9 -15 -10 -39 -1 -202 -19 -325 -36 -39 -6
-40 -5 -15 9 14 9 36 16 50 17 l25 1 -25 8 c-23 7 -22 8 15 16 l40 8 -40 7
-40 6 33 8 c23 5 29 10 21 16 -10 6 -7 11 11 19 23 9 22 10 -10 5 -33 -5 -32
-4 15 19 l50 24 -40 2 -40 2 45 20 c125 58 295 81 398 54z m-407 -437 c-79
-10 -90 -19 -24 -19 42 0 51 -3 49 -17 -1 -16 12 -19 109 -23 125 -6 115 -11
-60 -35 -66 -9 -163 -25 -215 -35 -101 -20 -220 -34 -220 -26 0 8 96 37 172
51 l73 14 -95 -4 -95 -4 50 19 50 19 -50 -5 -50 -4 40 14 c38 14 34 21 -10 16
-11 -1 -17 1 -14 4 14 15 200 44 274 44 l80 -1 -64 -8z m-1205 -916 c-3 -16
-3 -22 0 -15 9 19 24 14 33 -10 10 -26 -10 -63 -43 -80 -19 -10 -19 -8 3 16
14 14 20 26 15 26 -5 0 -20 -17 -34 -37 -14 -20 -40 -55 -59 -77 -18 -23 -49
-59 -68 -82 -39 -47 -176 -170 -153 -138 8 12 30 44 48 70 31 44 31 46 5 18
-15 -16 -46 -51 -68 -77 -22 -26 -50 -55 -64 -63 -26 -18 105 147 232 291 44
50 96 111 114 138 19 26 37 47 40 47 3 0 3 -12 -1 -27z m-941 -1076 c23 -18
12 -37 -23 -38 -25 0 -25 -1 -6 -9 12 -4 24 -18 27 -30 4 -16 -1 -23 -20 -31
-14 -5 -23 -12 -20 -15 2 -3 -8 -19 -24 -37 -16 -17 -29 -37 -29 -44 0 -7 -4
-13 -8 -13 -5 0 -9 -6 -9 -12 0 -7 -20 -43 -45 -80 -44 -65 -46 -66 -67 -51
-12 8 -25 12 -29 8 -4 -4 -1 -10 6 -12 6 -3 10 -9 6 -14 -3 -5 0 -8 7 -7 7 2
15 -5 17 -16 3 -13 0 -16 -9 -11 -8 5 -10 4 -5 -4 4 -7 -14 -33 -46 -65 -61
-62 -208 -186 -221 -186 -11 0 7 32 60 108 24 35 41 67 38 72 -3 5 4 11 15 15
11 3 20 13 20 21 0 8 5 14 10 14 6 0 10 6 11 13 1 14 28 57 111 179 111 160
182 243 199 232 9 -5 10 -2 6 9 -8 20 3 22 28 4z m1110 -27 c72 -25 91 -41
121 -105 56 -119 0 -235 -114 -235 -42 0 -129 41 -180 85 -92 78 -74 135 48
156 36 7 32 7 -24 4 -37 -3 -77 0 -87 6 -19 9 -19 11 -3 38 22 36 88 70 140
70 22 1 67 -8 99 -19z m455 -45 c30 -31 35 -43 38 -98 3 -53 1 -65 -17 -81
-21 -19 -21 -19 -22 5 0 22 -1 22 -8 4 -5 -12 -4 -23 3 -28 13 -9 -20 -37 -43
-37 -13 0 -13 2 -3 9 10 6 3 11 -23 15 -25 5 -40 3 -45 -4 -6 -9 -21 -9 -64 1
-60 13 -83 29 -43 29 17 0 23 5 22 20 -1 11 -5 23 -9 27 -9 9 -36 72 -36 83 0
19 94 44 153 41 35 -1 83 -49 92 -92 4 -17 9 -28 12 -25 10 10 -18 74 -45 99
-18 18 -46 30 -82 36 l-55 9 60 0 c92 0 93 1 75 12 -8 5 -10 10 -4 10 5 0 25
-16 44 -35z m-1075 -45 c8 -16 15 -53 16 -82 0 -38 3 -47 9 -33 8 19 4 111 -5
126 -3 4 23 10 57 14 60 7 63 6 86 -21 21 -26 23 -36 17 -93 -10 -110 -66
-162 -156 -144 -29 5 -47 20 -48 38 -1 6 -5 10 -10 10 -11 0 -26 13 -26 23 -1
4 -8 21 -17 37 -17 34 -15 74 8 123 19 41 48 42 69 2z"/>
<path d="M2000 4977 c0 -9 133 -135 180 -170 76 -57 171 -115 247 -153 70 -34
97 -41 153 -44 14 0 42 -16 64 -35 21 -20 50 -38 65 -41 14 -3 40 -9 56 -13
17 -4 50 -4 75 1 35 6 46 5 53 -7 8 -14 58 -45 74 -45 4 0 -4 8 -17 17 -14 10
-33 27 -43 40 -15 19 -21 20 -48 11 -38 -13 -121 -3 -168 22 -43 22 -86 65
-100 100 -5 14 -10 18 -10 10 -1 -9 -16 -21 -33 -28 -31 -12 -39 -9 -124 33
-125 62 -255 150 -346 235 -43 39 -78 69 -78 67z"/>
<path d="M6220 4895 c-309 -30 -728 -123 -1103 -244 -291 -94 -391 -113 -707
-132 -209 -12 -299 -6 -332 21 l-23 18 25 27 c61 65 240 122 477 151 111 13
144 14 168 4 l30 -12 -35 -29 c-19 -16 -30 -29 -24 -29 14 0 84 49 84 60 0 14
-69 30 -130 30 -56 0 -261 -23 -315 -35 -79 -18 -369 -126 -455 -170 -57 -29
-76 -55 -60 -84 20 -38 73 -46 290 -45 334 0 832 71 1547 218 143 30 193 36
295 36 142 0 168 -5 168 -31 0 -52 -234 -118 -425 -120 -72 0 -85 -2 -65 -11
52 -21 341 10 450 49 85 30 113 79 69 119 -17 16 -40 20 -125 22 -117 4 -185
-5 -614 -83 -842 -154 -1362 -213 -1515 -173 -69 18 -73 46 -13 82 39 23 183
86 196 86 3 0 -5 -11 -17 -24 -33 -36 -22 -71 26 -87 75 -25 492 -6 723 32 90
15 250 56 313 79 119 45 516 148 762 199 191 40 381 62 604 72 124 5 227 12
230 14 9 10 -379 2 -499 -10z"/>
<path d="M6619 4640 c-130 -21 -254 -146 -247 -250 1 -22 6 -40 11 -40 5 0 6
7 3 16 -3 8 -2 12 4 9 6 -3 10 -15 10 -25 0 -10 11 -32 25 -48 13 -16 29 -42
35 -57 6 -15 13 -25 17 -21 4 3 19 -5 34 -20 24 -23 38 -29 74 -34 6 0 -3 -7
-20 -15 -29 -13 -29 -13 30 -14 70 -1 136 27 169 71 24 34 33 123 16 172 -6
21 -27 48 -48 64 -30 23 -45 27 -96 26 l-61 -1 60 28 c84 41 156 40 194 0 28
-30 56 -101 40 -101 -6 0 -7 -15 -3 -35 10 -55 -1 -79 -72 -150 -112 -113
-207 -136 -319 -80 -72 37 -111 84 -142 173 -21 61 -23 63 -17 22 8 -53 32
-105 75 -157 17 -21 8 -13 -20 16 l-52 55 3 -32 c1 -18 8 -32 15 -32 7 0 13
-7 13 -15 0 -8 3 -14 8 -13 4 1 21 -5 38 -15 17 -9 34 -13 38 -10 3 4 6 1 6
-5 0 -7 7 -12 15 -12 8 0 15 -4 15 -10 0 -5 7 -10 15 -10 8 0 15 -4 15 -9 0
-5 10 -13 23 -16 12 -4 37 -13 56 -22 64 -29 249 9 329 68 88 64 126 211 87
330 -25 73 -110 160 -180 182 -64 19 -137 26 -196 17z m-41 -211 c-25 -14 -23
-25 17 -66 19 -20 35 -33 35 -28 0 4 13 -9 30 -30 16 -20 27 -41 24 -46 -3 -5
-27 -9 -54 -9 -84 0 -134 62 -110 136 12 34 33 53 60 53 12 0 11 -2 -2 -10z"/>
<path d="M7455 4390 c-3 -5 -17 -10 -30 -10 -13 0 -57 -17 -97 -39 -40 -21
-79 -36 -86 -34 -7 3 -25 -3 -40 -13 -15 -10 -39 -17 -54 -16 -14 1 -34 -6
-44 -15 -28 -29 -62 -43 -68 -30 -3 7 -4 3 -3 -8 2 -11 -12 -39 -32 -64 -29
-37 -31 -41 -10 -28 13 8 49 25 79 38 30 12 73 34 95 49 22 14 65 39 95 54 30
16 62 35 70 42 9 7 49 29 90 48 41 19 67 35 58 35 -9 1 -20 -3 -23 -9z"/>
</g>
</svg>
