<?xml version="1.0" standalone="no"?>
<!DOCTYPE svg PUBLIC "-//W3C//DTD SVG 20010904//EN"
 "http://www.w3.org/TR/2001/REC-SVG-20010904/DTD/svg10.dtd">
<svg version="1.0" xmlns="http://www.w3.org/2000/svg"
 width="1024.000000pt" height="1024.000000pt" viewBox="0 0 1024.000000 1024.000000"
 preserveAspectRatio="xMidYMid meet">
<metadata>
Created by potrace 1.16, written by Peter Selinger 2001-2019
</metadata>
<g transform="translate(0.000000,1024.000000) scale(0.100000,-0.100000)"
fill="#000000" stroke="none">
<path d="M0 5120 l0 -5120 5120 0 5120 0 0 5120 0 5120 -5120 0 -5120 0 0
-5120z m8534 4410 c65 -24 0 -145 -109 -203 l-30 -16 32 -1 c17 0 43 4 57 10
33 12 32 8 -3 -44 -57 -83 -157 -150 -298 -200 -62 -23 -83 -34 -58 -30 111
17 196 38 247 64 l58 28 -14 -27 c-32 -60 -111 -153 -167 -195 -68 -51 -249
-150 -293 -160 -15 -4 -26 -9 -24 -12 14 -14 233 45 321 86 20 10 37 16 37 13
0 -2 -20 -31 -45 -62 -127 -166 -242 -223 -595 -295 -69 -14 -166 -39 -215
-56 -103 -34 -86 -32 72 10 62 16 167 36 235 45 178 23 250 41 335 80 l75 35
-17 -28 c-58 -89 -141 -194 -192 -243 -112 -107 -291 -173 -528 -194 -178 -16
-382 -62 -493 -111 -29 -13 -52 -20 -50 -16 6 14 133 165 199 236 36 39 70 78
75 87 16 29 195 211 329 333 218 199 218 204 -2 14 -114 -99 -361 -355 -484
-503 -45 -55 -128 -154 -183 -220 -100 -119 -208 -254 -276 -344 -19 -25 -53
-69 -75 -98 -22 -28 -54 -71 -71 -95 -151 -212 -268 -380 -367 -528 -117 -176
-167 -240 -187 -240 -7 0 -5 -9 4 -22 23 -32 20 -45 -4 -17 -10 13 -19 19 -20
13 0 -5 6 -16 12 -22 10 -10 10 -17 0 -32 -15 -25 -4 -26 14 -2 22 28 17 -6
-6 -43 -29 -46 -70 -58 -70 -20 0 14 -46 55 -62 55 -5 0 -2 -10 6 -22 9 -12
16 -30 16 -39 0 -9 -37 -56 -81 -105 -45 -49 -93 -104 -107 -122 -14 -18 -27
-30 -30 -27 -3 3 10 21 28 40 18 19 32 37 29 39 -2 3 -47 -38 -99 -91 -68 -68
-114 -104 -162 -129 -37 -19 -70 -34 -74 -34 -3 0 14 24 39 53 24 28 75 93
113 143 196 257 249 316 279 308 18 -5 18 -3 -3 15 l-24 21 22 35 c12 19 32
38 45 41 15 4 22 11 18 20 -4 10 4 14 30 14 35 0 39 4 124 128 134 194 354
492 472 637 58 72 134 166 169 210 36 44 81 98 101 121 20 22 83 98 141 169
246 303 543 610 776 802 234 193 402 322 538 415 100 68 120 87 49 46 -230
-133 -709 -517 -935 -752 -21 -22 -40 -37 -43 -34 -3 2 -1 27 4 54 5 27 12 85
16 129 13 168 49 286 110 360 31 39 161 136 201 152 16 6 15 3 -4 -24 -26 -37
-39 -93 -52 -237 -10 -112 -7 -156 5 -69 14 97 35 175 70 247 27 58 46 82 87
114 88 67 276 171 388 214 24 9 24 8 -6 -24 -35 -37 -74 -92 -74 -104 0 -4 13
11 28 32 52 72 147 129 273 164 90 25 100 25 70 0 -34 -29 -19 -24 35 10 42
26 96 42 179 53 17 2 33 5 37 6 4 0 18 -3 32 -9z m-1345 -597 c-33 -67 -49
-153 -49 -268 -1 -109 -22 -215 -49 -253 -12 -18 -26 -32 -31 -32 -5 0 -17
-15 -27 -32 l-17 -33 -7 30 -7 30 -1 -32 c0 -18 -9 -38 -18 -45 -10 -7 -34
-33 -54 -58 -20 -25 -51 -60 -68 -79 -17 -19 -41 -47 -53 -64 -14 -19 -23 -26
-26 -18 -2 7 -13 -6 -24 -30 -13 -30 -21 -40 -27 -30 -6 9 -10 3 -14 -18 -4
-17 -20 -45 -37 -62 -16 -18 -30 -36 -30 -41 0 -5 -4 -6 -10 -3 -5 3 -12 -6
-16 -20 -9 -35 -24 -31 -25 8 -1 26 -2 27 -6 7 -8 -55 -14 -71 -23 -65 -6 3
-10 -2 -10 -12 -1 -10 -13 -33 -29 -51 l-28 -33 -7 113 c-9 163 -17 238 -25
233 -4 -2 -2 -55 5 -117 24 -210 17 -267 -36 -306 -26 -20 -29 -20 -33 -4 -3
9 -5 3 -6 -14 0 -17 -8 -37 -16 -44 -13 -11 -15 -6 -15 34 0 25 -11 103 -24
173 -34 175 -39 236 -27 318 19 131 91 239 243 367 l50 42 -28 -55 c-25 -48
-28 -65 -28 -144 0 -97 11 -272 22 -345 4 -27 8 24 9 130 2 257 32 371 127
484 40 49 237 219 244 211 2 -2 -3 -14 -12 -27 -18 -27 -46 -131 -46 -168 0
-15 9 1 24 42 46 130 111 220 207 288 40 27 75 50 79 50 4 0 -6 -26 -21 -57z
m661 -763 c-125 -100 -367 -182 -625 -214 l-120 -15 230 3 c245 3 263 6 383
64 23 11 42 18 42 15 0 -9 -82 -107 -149 -177 -90 -93 -190 -158 -304 -194
-133 -43 -166 -49 -327 -62 -254 -19 -318 -29 -409 -63 -47 -18 -85 -38 -84
-45 2 -6 -4 -9 -12 -6 -12 5 -11 11 7 38 48 69 106 135 113 128 4 -4 6 -2 5 3
-5 24 2 37 33 56 17 12 24 19 14 15 -15 -5 -16 -2 -7 14 26 48 128 101 271
139 41 11 65 20 55 20 -27 1 -183 -47 -228 -70 -21 -11 -38 -16 -38 -13 0 4
35 45 77 91 85 94 122 116 273 158 112 32 168 41 392 65 196 20 352 44 390 60
38 15 45 11 18 -10z m-1567 -22 c-31 -60 -22 -173 25 -319 23 -70 44 -149 48
-176 7 -56 -10 -131 -32 -140 -7 -3 -14 -11 -14 -18 0 -7 -20 -35 -43 -61 -24
-27 -49 -59 -56 -71 -14 -27 -28 -29 -34 -5 -3 9 -5 1 -6 -18 0 -20 -7 -42
-13 -48 -10 -10 -15 -3 -23 35 l-11 48 -1 -62 c-1 -34 -8 -75 -17 -90 l-14
-28 -7 30 c-13 59 -24 84 -60 140 -45 72 -57 66 -14 -6 37 -62 59 -121 59
-155 0 -31 -48 -104 -63 -98 -15 6 -59 68 -109 154 -21 36 -38 61 -38 57 0
-21 33 -81 84 -152 31 -43 54 -85 52 -92 -3 -7 -22 -35 -42 -62 l-37 -50 -19
32 c-84 147 -97 212 -73 359 20 127 30 168 48 193 13 17 14 14 10 -31 -3 -35
2 -70 20 -124 l25 -75 3 70 c1 39 1 113 0 165 -2 53 2 115 9 140 12 45 47 130
54 130 2 0 4 -21 4 -46 2 -56 15 -99 55 -179 16 -33 38 -82 48 -110 23 -62 23
-40 3 98 -14 98 -14 116 0 208 19 120 61 217 137 319 28 39 53 70 56 70 2 0
-4 -15 -14 -32z m1100 -606 c-92 -80 -124 -103 -183 -135 -119 -64 -212 -86
-453 -108 -226 -19 -303 -33 -401 -69 -31 -12 -60 -19 -63 -16 -3 3 9 23 26
44 17 22 31 44 31 48 0 20 129 142 181 171 134 75 271 95 465 68 140 -19 272
-16 359 8 71 20 74 20 38 -11z m-1592 -303 c16 -87 53 -198 81 -242 27 -42 29
-51 19 -74 -9 -19 -17 -24 -33 -20 -16 5 -18 3 -9 -6 15 -15 14 -27 -3 -27
-20 0 -85 76 -107 125 -10 23 -23 67 -28 96 l-9 54 -1 -68 c-1 -78 10 -111 69
-197 l41 -61 -18 -31 c-10 -17 -25 -34 -33 -38 -8 -4 -36 -17 -62 -28 -31 -14
-56 -35 -73 -60 -27 -41 -67 -75 -101 -86 -20 -6 -20 -6 2 81 16 62 23 115 22
178 l-1 90 -9 -75 c-11 -101 -36 -207 -60 -253 -24 -48 -57 -68 -178 -106 -55
-17 -102 -36 -105 -41 -11 -18 -25 -10 -25 14 0 14 -4 28 -10 31 -6 4 -10 -7
-10 -27 0 -57 -17 -67 -29 -17 -26 106 -44 151 -81 207 -22 33 -48 66 -57 73
-9 8 -5 -2 9 -21 46 -60 88 -164 105 -254 l16 -86 -34 -88 c-18 -48 -38 -95
-45 -105 -10 -16 -13 -15 -24 14 -20 47 -57 87 -102 110 -55 28 -57 19 -5 -18
55 -38 77 -84 77 -161 0 -75 -12 -86 -28 -25 -7 25 -15 43 -18 40 -4 -3 -1
-20 5 -38 23 -66 11 -121 -44 -194 -13 -16 -44 -65 -69 -109 -31 -52 -78 -109
-138 -169 -104 -102 -129 -111 -176 -64 -21 22 -27 38 -30 91 -2 35 1 101 7
148 6 46 15 137 21 203 8 104 16 141 61 275 l52 155 7 180 c7 197 14 225 69
265 17 11 118 50 226 85 107 35 304 108 438 161 275 110 398 154 412 150 5 -1
13 -18 16 -37z m967 15 c124 -13 181 -14 235 -7 40 6 73 9 75 8 6 -5 -162
-127 -208 -150 -75 -38 -159 -47 -265 -30 -50 8 -121 14 -160 13 l-70 -1 70
-7 c39 -4 99 -15 135 -24 51 -14 87 -16 170 -12 58 4 119 7 135 8 20 1 100
-32 240 -99 244 -118 296 -140 425 -181 204 -65 426 -85 620 -56 162 24 284
29 321 13 l31 -12 -32 -14 c-18 -7 -45 -13 -61 -13 -22 0 -27 -4 -24 -19 3
-15 -1 -18 -18 -14 -21 4 -21 4 -2 -8 30 -18 31 -19 15 -30 -13 -9 -12 -10 2
-6 26 9 40 -16 28 -47 -13 -36 -13 -36 8 -29 15 5 15 4 -1 -9 -16 -12 -17 -19
-9 -48 l10 -35 1 39 c1 46 12 43 13 -4 1 -18 -4 -35 -9 -38 -11 -7 -17 -51
-14 -115 0 -24 5 -36 12 -32 6 4 8 22 4 46 -5 26 -3 39 5 39 6 0 8 -4 5 -10
-3 -5 -1 -10 4 -10 6 0 11 5 11 12 0 6 3 8 6 5 4 -4 1 -13 -5 -21 -9 -11 -10
-20 -2 -35 14 -26 14 -34 0 -25 -8 5 -10 -1 -7 -20 3 -15 1 -26 -6 -26 -6 0
-5 -4 3 -9 15 -10 25 -41 13 -40 -21 3 -33 -3 -43 -23 -6 -13 -8 -20 -4 -16 4
4 15 0 24 -9 12 -13 15 -33 13 -86 -2 -62 0 -69 18 -74 11 -3 20 -9 20 -14 0
-5 -7 -6 -16 -2 -13 5 -15 2 -9 -15 4 -14 2 -22 -5 -22 -7 0 -10 -15 -7 -40 2
-22 1 -43 -4 -45 -4 -3 -4 -15 -1 -28 l6 -22 6 24 c3 14 12 26 20 29 12 3 12
2 1 -6 -10 -7 -10 -14 -2 -30 15 -28 14 -31 -9 -25 -16 4 -19 2 -13 -12 5 -14
3 -16 -8 -11 -9 5 -9 3 2 -6 22 -19 31 -48 14 -48 -12 0 -105 -85 -105 -96 0
-13 28 5 42 29 18 27 38 36 38 16 0 -5 5 -7 10 -4 6 3 10 1 10 -4 0 -6 -7 -11
-15 -11 -8 0 -15 -4 -15 -10 0 -5 7 -7 15 -4 11 5 13 2 9 -10 -4 -10 -1 -16 7
-17 8 0 5 -4 -6 -9 -27 -12 -43 -12 -25 0 8 5 11 13 6 17 -9 9 -57 -47 -50
-58 2 -4 -2 -10 -8 -12 -9 -4 -8 -6 3 -6 8 -1 21 5 28 12 11 10 11 8 2 -10 -6
-12 -16 -25 -21 -28 -6 -4 -8 -11 -5 -16 3 -5 -2 -6 -11 -2 -11 4 -15 3 -11
-4 5 -7 -1 -9 -15 -5 -14 3 -19 2 -14 -6 4 -7 16 -12 27 -12 10 0 19 -5 19
-11 0 -7 -11 -8 -29 -4 -16 3 -32 2 -35 -3 -3 -5 18 -13 47 -17 l52 -8 -40 -9
c-22 -5 -155 -13 -295 -18 -271 -9 -314 -14 -619 -84 -202 -46 -321 -59 -494
-54 -169 6 -244 26 -432 118 -99 49 -134 73 -200 135 l-80 75 70 -34 c290
-140 669 -171 973 -81 30 9 52 18 50 20 -1 1 -50 -6 -108 -17 -86 -16 -135
-19 -275 -15 -150 4 -184 8 -290 36 -127 33 -257 92 -315 141 l-35 30 55 -6
c78 -9 261 13 334 39 34 13 87 40 119 61 65 43 72 62 8 22 -57 -36 -144 -74
-211 -91 -91 -24 -166 -19 -295 17 l-40 11 40 8 c22 4 69 8 105 9 86 1 186 23
249 54 28 15 51 28 51 30 0 2 -39 -10 -87 -27 -86 -30 -92 -31 -283 -32 -246
-1 -325 -21 -645 -155 -282 -118 -399 -150 -561 -150 -92 0 -106 3 -161 30
-94 47 -133 116 -133 236 0 155 29 185 303 309 109 50 222 100 252 113 96 40
296 92 450 117 221 36 338 77 477 168 141 92 190 120 251 142 65 24 53 30 -14
6 -77 -26 -145 -62 -209 -110 -51 -38 -78 -52 -66 -33 10 16 46 112 42 112 -3
0 -14 -17 -27 -37 -32 -55 -79 -102 -122 -125 l-39 -19 7 93 c8 102 -4 149
-48 196 -29 32 -90 62 -124 62 -22 0 -25 2 -13 10 13 8 12 10 -4 10 -17 0 -18
2 -5 18 8 9 21 29 29 45 7 15 17 27 22 27 4 0 8 6 8 14 0 8 9 17 19 21 13 4
18 12 14 21 -3 8 2 21 12 28 10 7 15 18 11 24 -9 15 58 57 124 76 31 9 94 16
149 17 111 1 90 17 -24 18 -48 0 -91 -7 -136 -22 l-65 -22 4 23 c3 13 15 30
27 38 13 8 26 26 29 39 4 14 23 36 43 50 21 14 31 25 23 25 -13 1 -13 2 1 10
31 18 172 61 227 69 84 13 84 13 260 -5z m-708 -594 c78 -40 114 -134 96 -255
-7 -44 -8 -45 -44 -45 -35 0 -38 3 -64 58 -14 31 -52 85 -83 120 -55 60 -57
79 -5 46 19 -12 17 -8 -7 14 -38 36 -35 69 6 75 52 8 62 7 101 -13z m-93 -172
c49 -52 82 -175 38 -138 -13 10 -15 9 -15 -9 0 -18 -5 -22 -27 -19 -19 2 -40
21 -74 64 l-48 62 36 40 c39 44 49 44 90 0z m-535 -43 c-38 -47 -342 -358
-342 -348 0 37 26 137 50 188 36 80 65 103 150 126 39 11 88 28 108 38 51 26
57 25 34 -4z m-946 -572 c-3 -21 -9 -82 -12 -136 -6 -79 -3 -105 11 -143 20
-53 62 -84 115 -84 35 -1 35 -1 10 -14 -33 -17 -104 -35 -425 -105 -342 -75
-1086 -257 -1235 -302 -95 -28 -354 -86 -450 -100 -145 -21 -258 5 -315 73
-51 61 -78 128 -83 209 -5 92 8 138 54 189 52 57 122 84 219 84 83 0 172 -23
209 -54 57 -47 77 -180 34 -220 -44 -41 -124 -71 -206 -77 l-77 -6 31 34 c44
48 54 71 54 126 0 115 -101 181 -200 131 -82 -42 -111 -151 -71 -271 48 -143
134 -203 276 -195 85 6 136 30 192 90 79 86 111 262 69 378 -56 154 -214 264
-396 277 -170 12 -313 -82 -365 -238 -27 -80 -23 -236 9 -334 48 -152 163
-292 296 -363 82 -43 86 -40 14 9 -67 47 -97 74 -44 40 33 -21 76 -43 110 -55
8 -3 26 -13 40 -22 l25 -16 -24 21 c-28 25 -20 26 45 6 69 -21 90 -17 24 4
l-55 18 68 0 c51 1 73 5 87 18 17 15 24 16 42 6 l23 -12 -22 5 c-13 2 -26 0
-29 -5 -6 -11 31 -10 66 1 21 7 22 8 5 9 -18 2 -18 3 5 16 l25 14 -27 1 c-16
0 -28 -4 -28 -9 0 -4 -11 -6 -25 -3 -14 2 -24 6 -21 9 2 2 50 11 107 19 57 8
118 18 134 23 50 15 -2 12 -86 -5 -43 -9 -84 -14 -91 -11 -7 2 5 8 27 12 64
11 226 53 274 69 24 9 55 13 70 10 17 -4 22 -2 13 3 -8 6 23 17 92 33 58 13
103 26 101 30 -7 11 37 28 117 44 40 8 96 24 123 34 73 28 112 39 193 56 40 8
112 27 160 41 48 14 110 33 137 41 41 12 414 101 659 159 l59 13 -45 -46 c-24
-26 -69 -76 -100 -112 -31 -36 -80 -90 -110 -121 -51 -52 -56 -61 -77 -146
-15 -62 -38 -120 -71 -180 -28 -48 -50 -91 -50 -95 0 -4 19 3 43 16 72 39 240
138 277 162 19 13 39 24 45 24 5 0 26 5 47 10 33 10 38 16 56 70 11 33 51 109
89 170 l68 110 40 0 c36 1 75 18 75 34 0 3 -8 6 -17 6 -10 0 -48 30 -84 66
-52 52 -76 68 -106 73 -25 4 -39 12 -41 24 -4 22 46 86 85 109 27 15 32 16 59
2 35 -18 74 -54 74 -67 0 -5 -7 -4 -15 3 -23 19 -18 2 12 -36 15 -20 26 -48
26 -66 l0 -30 17 22 c14 18 19 20 24 9 5 -11 7 -11 12 -1 3 6 10 12 15 12 17
0 9 -35 -17 -73 -29 -44 -26 -57 9 -34 24 15 25 15 57 -34 55 -85 159 -212
195 -237 41 -30 117 -40 169 -22 20 6 60 36 91 68 51 52 55 55 72 40 36 -33
173 -90 240 -100 79 -12 129 -2 187 37 34 23 40 24 82 14 61 -16 186 -6 226
18 39 23 78 94 78 143 l0 37 88 -24 c159 -43 264 -63 517 -98 138 -20 322 -47
410 -60 88 -14 207 -31 265 -38 l105 -12 -220 -84 c-121 -46 -282 -108 -357
-137 -75 -28 -193 -71 -262 -94 -69 -23 -126 -45 -126 -47 0 -22 317 80 628
203 410 162 535 204 610 204 85 0 135 -23 189 -84 38 -44 63 -104 63 -156 0
-38 -41 -119 -74 -144 -17 -13 -142 -79 -276 -146 -410 -205 -893 -460 -930
-491 -107 -89 -278 -122 -435 -84 -33 8 -91 14 -130 15 -88 0 -316 35 -358 54
-20 9 -77 16 -154 18 -108 4 -126 7 -153 27 l-31 22 -36 -22 c-35 -22 -40 -22
-246 -16 -179 6 -216 10 -247 26 -29 15 -41 16 -56 8 -29 -17 -164 -12 -201 6
-16 9 -36 30 -43 47 l-13 31 -26 -25 c-32 -31 -72 -33 -127 -9 -24 10 -69 18
-119 19 -45 1 -95 8 -114 16 -25 11 -56 14 -121 10 -73 -4 -94 -1 -133 16 -38
17 -53 19 -77 11 -21 -8 -56 -7 -117 1 -84 11 -243 30 -418 49 -98 11 -131 23
-172 63 -31 30 -32 30 -81 18 -38 -10 -63 -11 -108 -2 -33 6 -108 18 -169 27
-133 19 -158 28 -194 71 -26 32 -29 34 -60 23 -38 -13 -126 -6 -176 16 -23 9
-45 31 -65 64 l-32 51 -25 -30 c-13 -17 -31 -30 -39 -30 -22 0 -222 108 -302
163 -181 124 -314 327 -343 518 -29 199 82 406 253 470 l63 24 530 0 c339 0
584 5 680 13 249 21 741 72 890 91 77 10 155 19 174 20 33 1 33 1 27 -36z
m1590 -377 c207 -67 249 -102 249 -206 -1 -52 -5 -63 -29 -89 -16 -17 -45 -36
-64 -42 -41 -14 -143 -4 -184 17 -39 20 -35 26 7 8 19 -7 47 -14 62 -14 22 1
16 5 -25 19 -67 23 -78 34 -90 94 -10 48 -9 49 21 67 38 24 103 34 164 27 28
-3 40 -1 32 4 -28 18 -140 10 -188 -13 -33 -16 -46 -18 -49 -9 -9 28 -71 98
-119 136 -28 22 -52 44 -52 49 -2 19 132 -5 265 -48z m-271 -26 c111 -53 166
-125 168 -221 2 -98 -63 -154 -170 -145 -72 6 -132 34 -217 100 -32 25 -62 46
-66 46 -11 0 -32 101 -32 149 0 42 33 74 102 96 64 21 137 12 215 -25z m-1069
-24 c40 -40 50 -85 11 -48 -33 31 -41 27 -16 -8 l22 -29 -54 -73 c-29 -40 -78
-109 -107 -153 -41 -61 -86 -107 -186 -193 -129 -111 -186 -152 -186 -133 0 5
22 45 48 88 26 43 56 96 67 117 11 22 60 91 108 155 49 64 117 154 152 201 82
108 84 110 96 110 6 0 26 -15 45 -34z m663 -26 c26 -13 51 -82 51 -138 -1
-121 -109 -220 -201 -182 -31 13 -131 129 -173 202 -35 59 -33 111 3 116 36 5
110 -27 128 -55 9 -14 20 -58 23 -97 l7 -71 2 68 c1 78 -18 132 -52 144 -19 6
-18 8 13 14 56 10 180 10 199 -1z m-894 -1350 c73 -12 145 -54 158 -93 13 -40
-16 -100 -69 -143 -56 -46 -160 -96 -193 -92 -23 3 -19 8 46 51 90 60 123 98
123 140 0 44 -9 54 -59 72 -194 68 -681 -102 -747 -261 -33 -80 25 -124 197
-149 112 -17 234 -49 244 -65 4 -7 -28 -8 -92 -4 -243 16 -503 -63 -647 -196
-130 -121 -129 -245 3 -312 49 -25 65 -28 155 -28 202 0 470 93 645 224 54 40
51 19 -3 -31 -170 -154 -400 -260 -618 -284 -218 -24 -396 48 -443 180 -19 56
-19 86 2 146 39 116 248 262 432 301 l81 17 -43 24 c-87 50 -108 89 -86 162
62 209 569 398 914 341z m1540 -150 c60 -66 -68 -276 -341 -559 -101 -106
-112 -120 -118 -163 -15 -99 32 -113 131 -36 60 46 106 101 178 212 54 81 68
91 120 82 53 -10 52 -33 -6 -140 -58 -110 -81 -176 -68 -197 7 -12 16 -10 55
10 72 38 137 104 189 188 66 107 92 133 130 133 19 0 39 -8 50 -20 19 -21 18
-23 -27 -113 -60 -118 -75 -175 -56 -213 29 -61 115 -56 258 15 77 39 180 110
209 145 15 17 31 21 31 7 0 -18 -94 -113 -154 -155 -80 -57 -149 -91 -223
-110 -81 -21 -128 -20 -179 4 -54 27 -77 62 -78 122 -1 26 -3 48 -6 48 -2 0
-20 -15 -40 -34 -60 -59 -148 -106 -198 -106 -24 0 -52 5 -62 10 -21 11 -45
83 -36 106 7 19 -8 18 -25 -2 -16 -20 -114 -86 -152 -102 -15 -7 -48 -12 -72
-12 -59 0 -94 30 -102 87 l-6 43 -47 -43 c-63 -57 -127 -87 -182 -87 -65 0
-90 23 -90 82 0 26 3 52 7 58 13 21 -7 9 -31 -19 -34 -41 -144 -108 -199 -122
-99 -25 -163 25 -152 120 2 25 8 55 12 66 7 17 4 16 -21 -6 -16 -14 -49 -40
-74 -58 -25 -17 -67 -49 -94 -70 -58 -47 -129 -71 -205 -71 -98 0 -151 43
-121 100 11 20 11 20 34 -6 18 -22 34 -28 78 -32 59 -5 98 9 131 46 26 28 16
51 -54 129 -33 36 -62 76 -65 89 -20 81 110 174 243 174 93 0 132 -52 78 -105
-26 -27 -50 -33 -42 -11 3 7 -2 24 -10 36 -13 18 -22 21 -50 17 -47 -8 -83
-33 -83 -58 0 -11 22 -46 48 -78 26 -31 54 -72 61 -89 7 -18 19 -32 26 -32 15
0 99 65 131 101 12 13 54 80 94 149 40 69 80 136 88 148 l15 24 -94 -8 c-116
-11 -168 -9 -182 5 -20 20 58 40 184 48 l123 8 53 74 c67 96 110 120 164 91
27 -15 24 -25 -21 -91 -22 -32 -40 -61 -40 -64 0 -3 71 -5 158 -5 151 0 204
-9 174 -28 -7 -5 -75 -12 -150 -15 -75 -4 -159 -10 -185 -13 -58 -8 -60 -12
-179 -240 -78 -150 -103 -227 -86 -258 33 -59 205 57 302 204 25 37 57 77 72
89 31 24 86 28 104 6 13 -16 11 -23 -58 -140 -43 -74 -68 -153 -52 -169 16
-16 92 26 151 84 39 38 61 70 72 105 46 134 236 425 352 539 90 89 172 118
210 76z m-2863 -1040 c45 -13 95 -58 104 -94 18 -75 -86 -208 -207 -266 -110
-52 -137 -35 -40 25 72 43 147 124 160 172 15 52 -1 80 -56 105 -126 56 -405
-33 -605 -191 -112 -89 -233 -248 -270 -355 -62 -180 37 -326 222 -326 180 0
455 135 631 310 113 112 222 160 364 160 38 0 60 -6 79 -21 32 -25 34 -49 4
-49 -18 0 -20 -2 -9 -9 12 -8 10 -21 -16 -78 -40 -86 -56 -144 -43 -157 6 -6
24 1 48 18 54 37 192 180 192 199 0 25 51 79 95 98 25 12 64 19 102 19 51 0
66 -4 83 -22 24 -26 26 -51 3 -73 -16 -16 -18 -16 -36 9 -21 30 -43 32 -92 12
-47 -20 -45 -43 7 -103 22 -26 49 -65 58 -85 l17 -38 57 48 c52 42 67 64 132
190 41 78 74 143 74 145 0 1 -39 0 -86 -2 -69 -2 -85 0 -82 10 6 18 35 26 123
36 l70 8 30 49 c52 86 87 116 134 116 27 0 44 -5 47 -15 3 -8 -10 -44 -29 -79
l-35 -66 192 6 c178 5 235 -1 214 -22 -4 -3 -62 -8 -130 -11 -68 -2 -166 -10
-218 -16 l-94 -12 -72 -140 c-115 -228 -136 -305 -82 -305 49 0 112 60 157
149 56 109 181 198 291 208 133 12 146 -69 27 -170 -53 -46 -167 -107 -199
-107 -13 0 -18 -8 -18 -29 0 -35 31 -61 70 -61 78 0 231 125 264 215 33 89
125 247 209 360 117 157 206 217 264 180 29 -19 30 -52 3 -129 -45 -131 -156
-292 -293 -422 l-82 -79 0 -54 c0 -84 41 -94 126 -28 37 27 50 48 84 132 113
273 316 556 419 584 87 23 116 -31 76 -142 -44 -121 -147 -265 -288 -404 -77
-76 -96 -100 -103 -134 -9 -36 -7 -45 9 -62 14 -13 26 -17 42 -12 39 12 107
83 135 140 31 64 106 134 181 170 102 48 235 53 299 11 45 -30 30 -37 -68 -30
-87 6 -96 5 -144 -20 -71 -36 -114 -75 -147 -135 -30 -57 -33 -114 -5 -119 22
-4 89 55 189 167 72 79 87 91 115 91 56 0 62 -21 27 -98 -43 -95 -58 -150 -44
-164 36 -36 149 66 225 204 26 48 59 96 73 107 43 34 114 24 114 -16 0 -7 -15
-36 -33 -65 -18 -29 -42 -74 -54 -99 -21 -45 -19 -43 75 51 127 128 213 171
267 136 37 -24 32 -65 -19 -175 -55 -119 -64 -149 -43 -157 41 -15 123 56 206
178 64 95 135 146 241 173 66 17 143 15 182 -6 25 -14 51 -67 45 -95 -5 -29
-2 -29 113 -9 92 16 337 45 383 45 50 0 24 -24 -34 -32 -30 -4 -152 -26 -271
-50 l-218 -42 -25 -35 c-48 -68 -125 -138 -181 -165 -74 -36 -166 -46 -212
-22 -32 16 -62 61 -62 92 0 12 -11 6 -41 -21 -80 -72 -186 -98 -229 -55 -36
36 -20 141 39 259 13 24 20 45 17 48 -17 18 -147 -107 -261 -252 -22 -27 -46
-55 -55 -62 -37 -30 -90 -1 -90 49 0 15 -2 28 -5 28 -3 0 -25 -16 -50 -35
-123 -94 -235 -54 -209 75 l10 47 -51 -55 c-66 -73 -128 -112 -178 -112 -50 0
-73 13 -86 50 l-10 31 -45 -35 c-69 -52 -128 -72 -176 -57 -41 12 -70 43 -70
74 0 18 -3 17 -35 -7 -19 -15 -60 -39 -91 -53 -101 -46 -181 -12 -191 80 l-5
44 -62 -46 c-153 -116 -292 -130 -347 -37 l-21 36 -44 -31 c-62 -43 -106 -59
-158 -59 -61 0 -80 28 -74 104 l4 54 -43 -32 c-24 -17 -65 -48 -91 -69 -62
-50 -159 -80 -227 -71 -75 10 -105 28 -105 64 0 33 14 38 44 15 26 -20 119
-19 156 0 56 29 46 88 -28 158 l-30 29 -43 -48 c-181 -201 -244 -237 -313
-183 -28 22 -35 73 -16 123 6 18 -9 7 -53 -38 -74 -75 -129 -106 -191 -106
-61 0 -90 35 -84 101 l5 46 -96 -75 c-113 -88 -260 -163 -380 -193 -117 -29
-285 -25 -351 9 -60 31 -118 88 -141 137 -25 55 -25 164 1 247 94 305 616 633
975 613 44 -2 97 -9 117 -15z"/>
<path d="M6774 6978 c-83 -54 -145 -78 -201 -78 -18 0 -87 18 -152 40 -119 40
-199 50 -246 30 -14 -6 4 -9 55 -10 90 -1 152 -21 238 -78 88 -57 138 -64 200
-25 26 16 51 38 56 49 5 12 28 33 50 47 56 36 103 76 90 77 -5 0 -46 -23 -90
-52z"/>
<path d="M6151 6841 c37 -10 112 -39 166 -65 55 -25 106 -47 114 -47 38 -4
-95 -21 -155 -20 l-69 1 6 -57 6 -56 -31 29 -31 29 32 -44 c17 -24 31 -52 31
-62 0 -10 5 -21 10 -24 6 -4 10 16 10 54 0 79 13 88 163 105 127 15 185 36
233 87 l29 31 -54 -34 c-45 -27 -64 -33 -110 -33 -48 0 -73 9 -171 57 -92 45
-128 57 -180 62 l-65 5 66 -18z"/>
<path d="M6233 4895 c-360 -36 -744 -122 -1203 -270 -243 -78 -436 -106 -755
-109 -185 -1 -219 6 -213 47 8 54 167 122 368 156 165 28 250 35 285 21 l30
-11 -33 -30 c-38 -34 -29 -38 18 -6 48 32 48 44 -2 58 -75 20 -335 -9 -483
-54 -212 -65 -422 -157 -435 -191 -35 -93 259 -112 720 -46 74 11 182 24 240
30 131 14 391 58 620 105 388 79 428 85 559 85 100 0 131 -3 149 -16 19 -13
21 -18 10 -32 -38 -45 -255 -102 -393 -102 -48 0 -74 -4 -70 -10 15 -24 290 4
410 41 73 22 105 47 105 82 0 46 -33 62 -140 65 -109 4 -197 -8 -665 -93 -335
-61 -520 -90 -899 -140 -415 -56 -648 -45 -620 29 6 15 156 94 213 111 l23 7
-22 -30 c-28 -38 -21 -58 27 -79 32 -13 71 -15 253 -10 348 9 511 33 765 112
217 68 337 101 557 155 327 80 558 113 898 129 l175 8 -180 0 c-99 1 -239 -5
-312 -12z"/>
<path d="M6534 4652 c-131 -47 -244 -195 -231 -304 8 -64 61 -161 108 -199 52
-41 162 -89 219 -96 63 -7 171 12 230 42 53 27 105 81 128 134 10 23 16 66 16
116 0 67 -4 88 -26 131 -35 67 -115 138 -186 164 -80 31 -193 36 -258 12z
m-88 -97 c-40 -40 -72 -129 -62 -175 18 -93 112 -210 184 -229 48 -13 112 -2
151 27 39 28 61 79 61 142 0 101 -63 164 -157 157 -64 -4 -60 5 13 32 62 24
83 25 136 11 76 -22 137 -126 122 -209 -10 -49 -91 -125 -178 -167 -118 -57
-217 -43 -301 42 -78 80 -104 186 -66 269 17 38 106 135 124 135 4 0 -8 -16
-27 -35z m151 -147 c30 -32 83 -119 83 -135 0 -8 -12 -18 -26 -24 -61 -22
-144 40 -144 107 0 72 45 98 87 52z"/>
<path d="M5960 3857 c-52 -40 -247 -321 -310 -447 l-32 -65 42 40 c88 84 245
297 296 402 28 57 30 90 4 70z"/>
<path d="M5177 2708 c-51 -61 -111 -159 -189 -308 -75 -143 -76 -150 -15 -85
114 124 239 324 261 418 10 41 -7 33 -57 -25z"/>
<path d="M5495 2689 c-81 -104 -246 -392 -232 -405 7 -7 118 122 175 203 54
76 95 151 118 217 25 69 0 63 -61 -15z"/>
<path d="M3398 2360 c-76 -23 -176 -108 -214 -182 -31 -62 -32 -88 -1 -88 33
0 95 47 158 121 30 34 74 84 98 111 l44 48 -29 -1 c-16 0 -41 -4 -56 -9z"/>
<path d="M6788 2321 c-45 -39 -98 -142 -98 -188 0 -104 127 -91 223 23 26 31
47 62 47 69 0 7 -17 15 -38 19 -43 6 -79 39 -90 81 l-8 28 -36 -32z"/>
</g>
</svg>
