<?xml version="1.0" standalone="no"?>
<!DOCTYPE svg PUBLIC "-//W3C//DTD SVG 20010904//EN"
 "http://www.w3.org/TR/2001/REC-SVG-20010904/DTD/svg10.dtd">
<svg version="1.0" xmlns="http://www.w3.org/2000/svg"
 width="1024.000000pt" height="1024.000000pt" viewBox="0 0 1024.000000 1024.000000"
 preserveAspectRatio="xMidYMid meet">
<metadata>
Created by potrace 1.16, written by Peter Selinger 2001-2019
</metadata>
<g transform="translate(0.000000,1024.000000) scale(0.100000,-0.100000)"
fill="#000000" stroke="none">
<path d="M6799 9466 c-2 -3 -33 -7 -69 -10 -35 -3 -79 -11 -98 -17 -18 -6 -40
-8 -48 -5 -8 3 -13 2 -10 -2 4 -7 -45 -24 -106 -36 -23 -5 -51 -17 -112 -47
-32 -16 -65 -29 -72 -29 -7 0 -18 -8 -23 -17 -7 -12 -11 -13 -11 -5 0 10 -4
10 -16 -2 -8 -9 -24 -16 -34 -16 -11 0 -36 -9 -56 -21 -20 -11 -43 -18 -50
-15 -8 3 -11 0 -8 -8 6 -16 -132 -90 -148 -80 -6 4 -8 3 -5 -3 6 -9 -57 -68
-66 -61 -2 2 -25 -16 -52 -39 -26 -24 -53 -43 -59 -43 -6 0 -29 -14 -50 -30
-22 -17 -45 -30 -52 -30 -6 0 -14 -6 -17 -14 -3 -8 -39 -37 -79 -64 -40 -28
-85 -62 -99 -76 -15 -13 -29 -23 -32 -20 -2 2 -10 -4 -18 -13 -13 -17 -13 -17
5 -3 18 14 19 13 14 -5 -4 -11 -17 -46 -31 -78 l-24 -57 1 55 c1 30 4 55 9 55
4 0 7 5 7 10 0 17 -127 -118 -140 -150 -7 -16 -17 -28 -23 -27 -11 2 -45 -78
-54 -125 -7 -39 -23 -35 -23 6 0 19 -4 37 -9 40 -11 7 -23 -22 -14 -36 3 -7 1
-8 -5 -4 -9 5 -12 -7 -13 -41 0 -26 -2 -73 -5 -105 -3 -34 -1 -59 6 -63 5 -3
10 2 10 11 0 10 2 15 5 12 7 -7 -6 -68 -15 -68 -18 0 -32 91 -26 167 7 84 -3
122 -23 85 -11 -21 -27 -129 -22 -147 2 -5 5 -18 7 -29 6 -34 14 -30 15 10 1
26 4 16 10 -31 4 -38 10 -83 13 -99 11 -54 -20 -10 -39 56 -21 71 -39 101 -24
42 5 -22 12 -52 15 -69 3 -16 10 -40 16 -52 8 -16 8 -29 0 -45 -10 -21 -11
-22 -12 -3 0 11 -7 31 -16 45 l-15 25 6 -32 c5 -26 3 -33 -10 -33 -12 0 -14
-4 -5 -19 13 -25 13 -44 -1 -36 -6 4 -22 34 -36 66 -14 33 -27 58 -29 56 -2
-2 7 -34 21 -72 27 -76 25 -94 -11 -70 -18 11 -24 12 -24 3 -1 -7 -10 -2 -20
11 -14 16 -20 38 -20 75 0 46 3 53 28 68 16 10 40 15 54 13 25 -5 25 -4 17 38
-11 56 -11 79 0 73 4 -3 11 -24 14 -47 3 -23 10 -46 15 -51 5 -5 4 14 -2 42
-7 35 -7 62 1 91 6 22 9 38 8 37 -15 -16 -75 -100 -83 -115 -13 -24 -101 -72
-197 -108 -76 -28 -229 -107 -259 -134 -10 -9 -27 -34 -39 -56 -35 -69 -137
-386 -157 -488 -11 -55 -24 -105 -30 -112 -8 -10 -60 -12 -238 -8 -218 5 -238
4 -508 -31 -215 -28 -316 -36 -430 -36 -142 1 -269 11 -307 25 -12 5 -21 -2
-34 -26 -10 -17 -37 -51 -59 -75 -23 -23 -45 -51 -49 -61 -4 -10 -9 -13 -12
-7 -5 16 -53 5 -53 -12 0 -17 -12 -18 -29 -1 -7 6 -11 7 -9 2 2 -6 -14 -28
-34 -49 -21 -22 -38 -36 -38 -33 0 4 -9 -2 -20 -13 -22 -22 -69 -26 -89 -7
-11 10 -13 10 -7 0 6 -10 -14 -13 -83 -13 -60 0 -92 -4 -98 -12 -4 -7 -18 -42
-29 -78 -12 -36 -27 -64 -33 -63 -5 2 -8 -3 -5 -11 3 -8 -4 -32 -15 -54 -36
-71 -68 -166 -62 -187 3 -11 19 -39 34 -63 27 -42 28 -45 16 -100 -6 -31 -13
-61 -16 -65 -3 -5 -7 -30 -8 -56 -2 -26 -15 -106 -29 -177 -13 -71 -28 -150
-31 -176 -6 -38 -10 -45 -24 -40 -14 5 -14 3 -3 -11 10 -11 12 -29 7 -57 -7
-44 -12 -49 -49 -52 -29 -3 -66 -62 -86 -138 -7 -25 -21 -62 -31 -82 -24 -48
-24 -66 2 -94 15 -16 17 -24 8 -29 -7 -5 -10 -4 -6 2 7 11 -17 26 -27 16 -9
-9 21 -33 42 -33 37 0 46 -24 33 -93 -7 -34 -18 -82 -26 -107 -8 -25 -19 -64
-25 -88 -6 -23 -14 -41 -18 -38 -4 2 -8 -4 -8 -14 0 -10 3 -17 7 -14 4 2 10
-5 14 -16 15 -48 73 -59 210 -41 39 5 137 12 219 15 87 3 152 10 156 16 9 14
100 28 167 26 29 0 54 2 56 5 1 4 116 10 255 14 139 4 272 8 295 10 23 2 193
5 377 7 184 1 337 6 340 10 7 8 319 15 314 7 -2 -4 7 -9 21 -11 26 -5 35 6 13
15 -7 3 32 6 88 6 65 1 104 -3 112 -11 9 -9 12 -9 12 0 0 7 13 12 30 12 17 0
30 -4 30 -10 0 -5 11 -10 25 -10 14 0 43 -11 65 -25 22 -14 44 -25 48 -25 5 0
14 -10 21 -22 6 -13 9 -15 7 -6 -3 12 -1 15 9 11 8 -3 12 -9 9 -14 -3 -5 1 -6
8 -4 8 3 39 -3 70 -14 32 -11 77 -23 102 -26 29 -5 43 -11 40 -19 -3 -7 1 -13
8 -13 7 -1 33 -4 58 -8 25 -4 43 -5 40 -2 -3 3 -17 7 -32 9 -15 2 -31 7 -35
12 -4 4 10 4 32 0 22 -4 42 -11 43 -15 2 -5 11 -9 20 -9 15 0 15 2 2 10 -10 7
25 10 113 8 70 -2 127 0 127 5 0 4 11 7 25 7 40 0 206 38 265 61 30 12 63 22
72 22 9 1 15 3 12 6 -2 2 15 17 38 33 l43 28 348 0 c191 0 347 -4 347 -8 0 -5
15 -6 33 -4 42 4 30 4 267 -2 634 -16 731 -21 742 -39 4 -7 7 -28 7 -47 0 -28
-2 -31 -9 -15 -7 16 -8 12 -8 -17 1 -24 5 -35 14 -31 6 2 15 0 18 -6 4 -6 21
4 43 25 23 23 41 33 51 29 9 -3 13 -3 9 1 -10 10 83 63 100 57 7 -3 10 -9 7
-14 -3 -5 0 -9 6 -9 7 0 30 -14 51 -31 29 -23 37 -34 29 -44 -8 -9 -5 -12 12
-11 26 2 61 -22 52 -35 -3 -5 0 -9 5 -9 12 0 13 5 12 80 -1 40 1 51 9 40 8
-12 10 -12 10 -1 0 9 4 10 13 4 6 -5 32 -8 57 -7 25 1 132 -4 238 -12 165 -11
199 -11 227 0 18 8 36 11 40 8 4 -4 5 -2 4 3 -2 6 0 20 4 32 5 13 -2 55 -17
110 -27 100 -40 159 -40 188 1 61 5 77 22 82 10 2 22 14 28 26 5 12 16 21 24
19 11 -3 11 0 0 12 -10 13 -10 16 1 16 10 0 11 2 2 8 -25 16 -90 203 -77 224
4 7 3 8 -5 4 -7 -4 -15 2 -20 16 -4 13 -11 22 -15 21 -16 -7 -47 -2 -42 6 4 5
2 11 -4 13 -5 1 -28 89 -50 193 -23 105 -52 242 -66 306 -31 148 -37 189 -23
189 5 0 7 5 3 12 -5 8 -2 9 9 5 9 -3 19 -1 23 5 5 7 2 8 -7 3 -12 -8 -12 -6 0
8 7 9 20 17 27 17 19 0 18 63 -1 100 -8 16 -12 37 -9 47 4 13 3 14 -3 5 -7 -9
-13 -1 -22 28 -6 22 -12 42 -11 45 0 3 -9 14 -21 26 -11 11 -18 27 -15 35 3 8
2 14 -3 14 -5 0 -16 28 -26 63 -25 92 -23 90 -138 82 -77 -5 -98 -4 -92 5 6 9
3 10 -10 2 -34 -18 -126 22 -149 66 -10 19 -30 33 -70 46 -31 11 -61 25 -67
33 -6 7 -20 13 -30 13 -11 0 -19 5 -19 11 0 10 -13 29 -65 95 -20 26 -21 26
-99 15 -44 -6 -81 -9 -83 -7 -3 2 8 10 24 18 15 7 32 23 38 36 5 12 15 22 22
22 12 0 17 20 16 57 0 7 2 12 6 11 17 -2 19 5 10 36 -6 22 -6 43 1 62 8 20 8
30 1 32 -6 2 -9 8 -5 13 3 5 1 9 -5 9 -5 0 -12 -10 -14 -22 -4 -20 -4 -20 -6
4 0 15 4 30 9 33 13 8 13 52 0 57 -14 4 -21 89 -9 104 14 17 -19 70 -34 55 -6
-6 -16 -11 -21 -11 -6 0 -5 5 2 12 18 18 15 68 -4 68 -12 0 -15 6 -10 24 4 16
0 29 -14 41 -11 10 -20 24 -20 31 0 13 -33 78 -51 100 -5 6 -8 40 -7 74 l3 64
-35 9 c-20 6 -29 11 -20 14 38 11 42 14 37 20 -11 11 -80 14 -86 4 -4 -5 -30
-11 -59 -12 -29 -2 -55 -6 -58 -10 -2 -4 -37 -7 -77 -7 -39 0 -85 -5 -101 -11
-16 -7 -84 -23 -150 -37 -95 -20 -144 -25 -231 -23 -125 2 -145 0 -161 -20 -6
-8 -16 -11 -22 -7 -6 3 -14 1 -18 -5 -5 -8 -3 -9 6 -4 9 6 11 4 5 -4 -4 -7
-16 -10 -27 -8 -11 3 -17 3 -14 0 8 -9 -32 -35 -43 -29 -5 3 -14 -1 -21 -9
-19 -23 -67 -19 -73 6 -3 12 -10 18 -16 15 -5 -4 -34 5 -65 19 -30 14 -59 25
-64 25 -5 0 -15 7 -22 15 -7 8 -22 15 -34 15 -14 1 1 13 44 38 36 20 68 37 71
37 3 0 17 13 32 29 17 18 32 26 42 22 9 -3 14 -2 11 3 -3 4 17 23 44 42 28 19
50 37 50 40 0 3 -30 9 -67 12 -61 5 -157 23 -410 74 -76 15 -96 24 -75 36 9 6
178 -24 317 -56 100 -24 147 -32 243 -41 22 -2 35 1 39 10 3 8 10 11 16 7 5
-3 7 -1 4 4 -9 14 19 37 34 27 8 -4 9 -3 5 4 -4 7 -2 12 4 12 14 0 40 25 40
39 0 6 -6 11 -12 11 -7 0 6 12 30 26 23 14 47 22 54 18 6 -4 8 -3 5 3 -3 5 14
29 39 53 24 24 43 48 41 54 -5 14 42 46 67 46 11 0 16 3 13 6 -10 10 31 62 54
69 22 7 21 30 -1 30 -22 0 -23 23 -1 34 17 9 20 8 24 -12 4 -18 4 -17 6 6 1
32 64 120 77 109 5 -4 6 -3 2 2 -7 9 33 70 61 94 8 6 16 19 17 27 3 22 44 76
54 70 4 -3 6 11 3 30 -4 28 0 39 22 59 15 14 24 29 21 34 -7 12 49 94 59 85 4
-5 5 -3 2 3 -4 6 -2 25 2 42 14 46 -10 62 -91 62 -35 0 -67 -2 -69 -4z m-259
-219 c-158 -95 -335 -211 -448 -292 -114 -82 -457 -368 -557 -465 -213 -206
-515 -534 -515 -558 0 -6 -11 -19 -25 -30 -22 -18 -23 -21 -7 -27 14 -6 13 -9
-11 -17 -19 -7 -26 -15 -23 -25 5 -11 2 -13 -10 -9 -12 4 -15 2 -10 -9 3 -9 0
-15 -8 -15 -8 0 -17 7 -20 17 -6 14 -8 14 -20 -3 -8 -10 -12 -23 -9 -27 3 -5
-5 -6 -18 -2 -20 7 -22 6 -11 -7 10 -12 8 -18 -9 -34 -21 -19 -21 -19 -17 11
2 19 11 33 25 40 13 5 22 14 21 20 -3 17 13 55 23 55 5 0 9 7 9 15 0 8 8 15
19 15 10 0 24 7 31 15 7 8 17 12 23 8 6 -3 7 -1 3 5 -12 20 48 94 247 304 338
355 660 624 1027 857 161 102 417 250 435 251 5 0 -60 -42 -145 -93z m-834
-813 l39 -15 -35 6 c-43 7 -30 -9 20 -24 l35 -11 -33 5 c-20 3 -31 1 -27 -5 3
-6 14 -10 23 -10 9 0 24 -5 32 -10 25 -16 -7 -30 -64 -26 -43 2 -47 1 -31 -11
11 -7 24 -13 29 -13 6 0 4 -5 -4 -10 -12 -8 -12 -10 5 -11 11 0 29 -3 40 -5
11 -3 67 -11 125 -18 101 -11 103 -12 56 -19 -101 -14 -136 -10 -371 49 -97
24 -106 29 -85 38 14 6 31 16 38 23 7 7 25 13 40 13 24 0 25 1 7 13 -17 13
-17 15 6 30 13 10 33 17 44 17 17 0 18 2 5 11 -21 14 55 2 106 -17z m-113
-159 c67 -19 129 -35 139 -35 9 0 20 -5 23 -10 4 -7 -3 -9 -22 -5 -27 5 -26 5
4 -7 42 -17 50 -27 16 -20 -24 5 -26 3 -15 -10 11 -14 0 -15 -100 -13 -64 1
-104 -1 -93 -6 11 -4 41 -8 67 -8 26 -1 50 -5 53 -11 3 -5 23 -10 43 -10 48
-1 25 -15 -43 -26 -64 -10 -113 -7 -255 17 -157 26 -156 26 -134 50 9 10 22
19 29 19 17 0 56 36 48 44 -3 3 1 6 10 6 8 0 25 14 37 30 27 39 43 38 193 -5z
m-736 -222 c0 -48 -4 -97 -9 -108 -13 -29 -73 -68 -108 -69 -19 -1 -30 -6 -31
-16 0 -13 -1 -13 -6 0 -8 21 -44 60 -68 72 -20 11 -20 10 -2 -10 11 -11 23
-37 27 -57 7 -31 4 -46 -20 -92 -33 -63 -57 -93 -76 -93 -7 0 -14 -5 -16 -11
-2 -7 -12 -7 -31 0 -36 14 -73 14 -39 1 39 -16 52 -65 37 -135 -7 -33 -16 -69
-21 -80 -13 -34 -94 -145 -94 -129 0 4 -16 -13 -35 -38 -31 -39 -40 -45 -67
-42 -18 2 -36 8 -40 12 -5 5 11 69 35 143 24 74 50 159 57 189 13 61 69 229
80 245 4 6 13 32 20 59 19 68 69 115 162 150 40 15 80 32 88 37 31 20 80 39
99 39 11 0 23 5 26 10 3 6 12 10 19 10 10 0 13 -23 13 -87z m598 50 c124 -24
135 -28 100 -34 -22 -3 -35 -7 -30 -8 6 -1 1 -7 -10 -12 -16 -7 -14 -9 13 -6
21 2 29 0 23 -6 -6 -6 -44 -11 -85 -12 -42 0 -79 -4 -82 -8 -4 -4 5 -7 20 -7
15 0 25 -4 22 -8 -2 -4 11 -6 31 -4 25 3 34 1 29 -7 -4 -6 -14 -11 -22 -11 -8
0 -29 -7 -45 -16 -37 -19 -152 -20 -242 -3 -34 7 -64 13 -66 15 -2 2 7 14 20
28 13 13 41 44 63 70 21 25 42 43 46 41 5 -3 11 -1 15 5 10 16 48 12 200 -17z
m1255 -40 c0 -5 7 -17 16 -28 12 -16 17 -17 23 -6 11 18 83 -53 75 -74 -4 -10
0 -15 11 -15 15 0 15 -2 5 -16 -11 -12 -11 -15 0 -12 8 2 14 -1 15 -7 0 -5 8
-27 18 -48 10 -21 20 -45 22 -55 2 -9 8 -30 14 -45 15 -38 14 -45 -3 -21 -20
26 -43 6 -27 -24 6 -11 11 -31 11 -44 -1 -17 -4 -13 -15 16 -28 78 -28 84 3
80 26 -3 25 -3 -4 7 -26 9 -36 23 -63 90 -18 44 -44 92 -57 108 -13 16 -24 34
-24 40 0 6 -9 16 -20 23 -21 13 -27 38 -10 38 6 0 10 -3 10 -7z m-555 -43 c83
-9 128 -20 162 -38 22 -12 91 -100 116 -148 24 -47 57 -187 56 -241 -1 -49 -3
-49 -13 0 -4 17 -11 25 -18 21 -6 -4 -45 -10 -87 -15 -42 -4 -85 -11 -95 -15
-16 -6 -18 -4 -13 9 10 27 -4 20 -38 -19 l-32 -36 -7 51 c-7 52 -25 80 -27 39
0 -21 -1 -21 -8 -3 -7 17 -8 15 -14 -10 -3 -17 -13 -39 -21 -50 -13 -16 -15
-17 -10 -2 3 9 1 17 -5 17 -6 0 -11 -7 -11 -16 0 -8 -4 -13 -9 -9 -5 3 -12 -4
-16 -15 -4 -11 -20 -27 -36 -35 -16 -9 -29 -20 -29 -25 0 -5 -19 -19 -42 -31
l-43 -21 25 28 c21 24 21 26 3 10 -14 -12 -32 -17 -48 -14 -14 3 -28 1 -31 -3
-3 -5 -16 -9 -30 -9 -14 0 -34 -9 -46 -20 -16 -15 -34 -20 -67 -19 -29 1 -37
4 -21 7 23 4 24 5 5 12 -19 7 -18 8 7 20 21 10 25 16 17 26 -8 9 -5 15 10 23
15 9 51 62 51 77 0 2 -18 -16 -41 -41 -40 -43 -115 -82 -141 -72 -7 2 7 10 32
16 63 18 141 97 140 143 -1 7 -8 0 -17 -17 -30 -58 -99 -116 -135 -114 -7 0
-2 6 12 12 30 14 44 30 70 79 30 57 23 59 -11 4 -22 -35 -33 -45 -39 -36 -8
12 9 65 17 56 3 -2 0 -14 -7 -25 -18 -35 -3 -23 19 15 24 41 28 57 6 28 -14
-19 -14 -19 -15 1 0 16 -5 13 -22 -14 -26 -40 -61 -76 -88 -91 -24 -13 -40
-13 -18 1 10 5 22 18 28 29 9 17 7 17 -21 7 -23 -9 -32 -9 -38 1 -5 9 -15 6
-39 -11 -17 -13 -50 -29 -74 -37 -24 -7 -61 -21 -84 -31 -44 -21 -84 -25 -84
-9 0 6 11 10 25 10 35 0 85 27 85 46 0 11 -10 9 -47 -12 -39 -22 -51 -24 -66
-14 -18 11 -19 9 -15 -19 5 -35 -8 -43 -15 -8 -3 18 -5 16 -6 -8 -2 -30 -2
-29 -19 12 -23 55 -33 63 -20 16 23 -92 23 -91 -3 -58 -13 17 -27 33 -32 36
-5 4 -6 13 -2 20 7 11 5 12 -6 1 -11 -10 -11 -16 -1 -33 10 -16 10 -22 -1 -34
-8 -8 -18 -11 -21 -7 -4 3 -11 0 -16 -7 -6 -11 -14 -8 -35 15 -26 28 -27 24
-9 -22 3 -6 -7 -25 -21 -42 -25 -29 -20 -52 8 -36 7 5 6 1 -3 -10 -8 -11 -16
-14 -18 -7 -2 6 -12 11 -23 11 -10 0 -19 7 -19 15 0 8 -4 15 -8 15 -5 0 -30
29 -57 65 -50 69 -66 79 -39 27 8 -18 12 -37 8 -43 -4 -8 -3 -9 4 -5 7 4 19
-9 32 -33 11 -22 28 -44 37 -50 26 -14 9 -25 -18 -11 -19 11 -21 10 -16 -4 11
-28 -1 -17 -17 16 -9 17 -16 37 -16 45 0 7 -4 13 -10 13 -13 0 -13 -57 -1 -64
5 -4 6 -18 2 -33 -5 -20 -18 -30 -51 -41 -39 -13 -44 -13 -55 2 -11 14 -14 14
-30 -4 -10 -11 -24 -20 -32 -20 -7 0 -13 -4 -13 -10 0 -20 -37 -9 -63 18 -26
28 -58 122 -50 152 14 53 184 179 327 242 61 27 125 55 141 63 17 7 53 20 80
28 49 15 106 39 135 58 8 5 33 18 56 29 56 27 94 58 105 87 5 13 15 23 21 21
7 -1 58 19 113 46 55 26 129 55 165 63 36 8 75 19 88 24 12 5 41 7 65 4 23 -2
64 -7 90 -10 33 -3 46 -1 41 6 -4 7 -1 7 12 0 69 -38 107 -52 101 -37 -5 13 2
14 44 9 30 -4 49 -2 49 4 0 6 -33 12 -73 15 -40 3 -82 10 -92 17 -18 11 -17
12 10 7 17 -3 66 -10 110 -16z m-2006 -707 l91 -6 -6 -32 c-7 -37 14 -86 46
-108 19 -13 19 -14 0 -34 -31 -34 -144 -185 -170 -228 -13 -22 -27 -42 -30
-45 -4 -3 -15 -20 -25 -37 -19 -32 -31 -37 -87 -36 -10 0 -18 -5 -18 -10 0 -5
16 -7 35 -5 36 4 47 -10 22 -30 -7 -6 -30 -45 -52 -86 -26 -50 -46 -76 -59
-78 -11 -2 -21 -10 -23 -18 -4 -12 -3 -13 5 -1 6 9 21 12 42 9 21 -3 34 0 37
8 3 9 15 11 33 7 20 -4 38 1 58 16 17 11 34 21 38 21 4 0 16 8 26 17 15 14 38
17 109 17 77 -1 89 1 94 17 7 22 -12 62 -26 54 -5 -4 -9 -1 -9 4 0 6 15 11 33
11 25 0 29 -3 17 -11 -11 -7 -4 -8 25 -3 22 4 42 8 44 10 2 2 10 -4 17 -14 12
-15 15 -15 24 -2 9 13 11 13 19 0 6 -8 13 -11 17 -7 11 11 -17 36 -46 40 -13
2 -26 9 -28 15 -3 9 3 9 25 1 24 -9 30 -8 42 10 11 17 23 21 65 19 l51 -1 -45
-6 -45 -6 45 -7 c30 -5 47 -3 52 5 7 11 12 2 9 -15 0 -5 2 -7 7 -7 20 3 32 -3
32 -17 0 -9 5 -12 12 -8 7 4 8 3 4 -4 -4 -8 0 -12 11 -12 10 0 30 -7 45 -14
16 -8 42 -17 59 -20 16 -2 36 -10 44 -16 8 -6 19 -9 24 -5 7 3 8 0 5 -9 -4
-10 -1 -16 9 -16 23 0 41 -26 23 -33 -10 -4 -13 -1 -9 9 3 8 -1 14 -8 14 -8 0
-36 11 -64 24 -67 33 -166 66 -177 60 -4 -3 -8 0 -8 6 0 7 -16 11 -43 9 -24
-2 -49 1 -56 5 -20 13 -26 -3 -8 -22 16 -15 19 -15 27 -2 8 12 13 13 30 3 11
-7 28 -13 37 -13 10 0 32 -9 48 -20 33 -22 60 -27 49 -8 -4 6 8 0 27 -14 19
-14 39 -24 45 -21 7 2 10 -6 9 -19 -1 -13 0 -15 2 -5 6 24 26 21 54 -9 13 -14
46 -35 72 -46 27 -12 53 -31 58 -42 8 -17 9 -14 5 12 -3 17 -1 32 4 32 6 0 10
-20 10 -44 0 -25 5 -46 12 -48 6 -2 11 -21 10 -45 -1 -24 4 -45 12 -52 8 -7
12 -21 9 -31 -3 -11 0 -20 6 -20 6 0 11 11 11 25 0 14 -4 25 -9 25 -12 0 -20
35 -12 49 5 7 11 3 19 -11 23 -47 38 -258 19 -270 -9 -6 -9 -8 0 -8 16 0 18
-396 3 -405 -14 -8 -13 -45 1 -45 7 0 9 -9 6 -22 -3 -11 1 -52 11 -90 14 -60
14 -70 2 -78 -10 -6 -16 -6 -19 1 -4 14 -52 61 -57 56 -2 -2 5 -12 16 -22 11
-10 20 -24 20 -32 0 -7 -24 15 -53 49 -133 158 -388 269 -711 310 -169 21
-575 16 -829 -10 -119 -13 -223 -20 -230 -15 -19 12 -37 12 -34 1 5 -23 -67
-31 -268 -31 -161 -1 -220 3 -255 14 l-45 15 2 80 c2 72 36 367 48 422 4 17
11 22 24 17 12 -3 21 0 25 10 5 15 -5 19 -33 15 -18 -2 -6 88 15 111 19 21 18
39 -2 39 -10 0 -14 5 -10 15 3 9 13 77 21 153 9 75 24 207 35 292 10 85 21
185 25 221 6 65 7 66 33 64 247 -26 269 -26 433 -11 91 9 228 25 305 35 76 11
153 22 169 24 52 7 348 7 444 0z m3305 -75 c3 -24 10 -97 16 -163 6 -66 13
-127 16 -136 2 -9 -4 -20 -15 -25 -18 -8 -19 -11 -4 -29 13 -16 15 -17 10 -2
-4 9 -2 17 3 17 5 0 11 -15 14 -32 29 -188 126 -962 126 -1006 0 -14 -8 -26
-22 -31 -13 -5 -63 -23 -111 -41 l-88 -31 -60 21 c-58 19 -86 19 -74 -1 8 -13
-22 -11 -155 6 -666 87 -686 89 -955 89 -198 1 -246 -2 -346 -21 -254 -49
-387 -111 -543 -254 -39 -35 -53 -44 -42 -26 10 15 23 27 28 27 5 0 7 4 3 9
-8 14 48 92 90 124 31 25 117 71 215 116 l25 11 -25 -6 c-128 -33 -274 -129
-366 -241 l-42 -53 3 90 c3 63 0 88 -7 84 -7 -5 -8 -2 -3 5 4 7 9 176 10 375
3 336 10 429 32 445 5 3 9 16 9 27 0 22 68 97 78 86 3 -3 6 4 6 16 0 13 6 22
16 22 8 0 12 4 9 10 -5 8 52 41 77 44 3 1 10 4 14 9 4 4 25 7 46 7 28 0 38 4
38 16 0 9 -9 18 -20 21 -16 4 -18 9 -9 24 5 10 18 19 29 19 11 0 27 8 37 19
10 10 28 22 41 25 12 4 22 12 22 17 0 5 5 9 10 9 6 0 10 -7 10 -15 0 -8 5 -15
11 -15 6 0 8 9 4 23 -6 21 -5 21 9 3 13 -16 18 -17 45 -5 17 8 32 21 32 29 1
11 3 10 6 -2 3 -14 16 -18 56 -20 29 -1 61 -1 72 0 32 3 35 3 141 -1 55 -2
106 -7 113 -11 7 -4 15 -5 18 -2 3 3 12 1 20 -5 9 -9 21 -8 43 1 33 14 38 25
14 34 -22 8 -40 -4 -23 -15 11 -7 11 -9 -2 -9 -9 0 -19 7 -23 15 -3 8 -16 15
-28 15 -19 0 -20 -2 -8 -11 11 -7 6 -8 -20 -3 -19 3 -38 11 -41 16 -7 11 -31
7 -41 -7 -5 -6 -8 -4 -8 5 0 13 -1 13 -10 0 -9 -13 -12 -13 -21 3 -5 9 -17 17
-24 17 -17 0 -20 16 -6 24 14 9 249 9 306 1 41 -6 48 -5 38 6 -7 7 -13 19 -13
27 0 11 3 11 15 -2 8 -8 15 -19 15 -24 0 -11 128 -22 225 -20 33 0 74 0 90 -1
17 -1 57 -1 90 0 33 1 70 -1 82 -5 16 -5 25 -2 33 14 13 24 9 26 -44 16 -37
-7 -43 11 -6 19 19 4 28 11 23 18 -4 8 -1 8 9 -1 8 -7 24 -9 33 -5 14 5 16 3
10 -8 -5 -10 -5 -11 3 -4 5 6 12 19 14 30 3 17 12 20 61 23 33 2 55 7 52 13
-4 5 -2 9 3 9 5 0 19 9 32 20 13 12 30 18 37 16 7 -3 13 -1 13 4 0 6 3 9 8 9
21 -4 31 3 26 16 -4 9 3 16 19 20 14 4 34 16 44 28 10 11 12 17 4 12 -10 -5
-12 -4 -7 3 4 7 28 12 54 13 26 0 90 8 142 18 52 10 98 19 102 20 4 0 9 -18
12 -41z m-4739 -130 c-3 -40 -22 -167 -40 -283 -60 -371 -140 -1153 -106
-1030 l9 30 1 -27 c1 -16 -6 -31 -16 -37 -15 -9 -12 -11 17 -12 32 -1 33 -2
10 -9 -56 -16 -70 -23 -64 -31 3 -5 -4 -9 -15 -9 -11 0 -23 5 -26 10 -4 6 1
59 9 118 9 59 25 193 36 297 41 382 52 473 99 785 15 94 39 228 46 251 4 10
15 19 27 19 19 0 20 -4 13 -72z m4879 7 c15 -8 22 -21 23 -50 2 -22 7 -71 13
-110 14 -107 49 -343 60 -410 6 -33 28 -175 50 -315 22 -140 47 -297 56 -347
20 -118 25 -216 10 -204 -6 5 -22 11 -36 13 -22 3 -25 7 -23 38 2 19 -4 78
-12 130 -9 52 -20 122 -25 155 -6 33 -17 119 -25 190 -8 72 -19 150 -24 175
-5 25 -14 79 -20 120 -6 41 -22 145 -35 230 -14 85 -32 202 -41 260 -9 58 -19
118 -21 134 -4 26 -3 28 12 15 9 -7 26 -18 38 -24z m78 -32 c10 -9 18 -26 18
-37 0 -23 59 -381 114 -691 73 -419 125 -776 96 -660 l-8 30 -1 -32 c-1 -40
-17 -43 -25 -5 -3 15 -22 146 -41 292 -36 262 -73 492 -139 850 -53 291 -53
289 -14 253z m-2723 -8 c10 -10 4 -122 -8 -142 -6 -10 -11 -13 -11 -5 0 10 -5
10 -22 1 -13 -7 -26 -16 -29 -22 -9 -13 -63 20 -90 56 -24 33 -39 117 -20 117
6 0 11 -6 11 -12 0 -9 2 -10 8 -2 4 7 16 13 26 15 29 6 127 1 135 -6z m-2383
-12 c-9 -33 -28 -194 -24 -199 3 -2 10 33 16 78 13 91 35 135 27 53 -3 -28 -8
-65 -11 -83 -3 -23 -2 -32 5 -27 16 9 15 -9 -19 -326 -17 -156 -37 -349 -45
-429 -20 -201 -36 -301 -51 -330 -7 -15 -12 -33 -12 -40 3 -47 -4 -80 -21 -99
-24 -28 -35 -13 -27 37 3 20 11 98 16 172 6 74 17 182 25 240 37 272 74 635
72 725 0 50 35 245 45 245 5 0 7 -8 4 -17z m-41 -10 c-8 -19 -10 -29 -44 -253
-31 -211 -83 -630 -83 -677 0 -24 -4 -43 -8 -43 -10 0 -13 -23 -35 -273 -13
-145 -15 -191 -5 -202 6 -8 33 -18 58 -22 l47 -8 -75 -5 c-102 -7 -100 -13
-70 245 5 44 14 125 20 180 6 55 22 172 35 260 14 88 43 291 66 450 23 160 46
295 51 300 7 7 8 -3 4 -30 -5 -29 -4 -36 3 -25 6 8 11 27 11 42 0 30 16 78 26
78 3 0 3 -8 -1 -17z m2553 -16 c24 -22 29 -67 13 -110 -10 -26 -52 -40 -90
-30 -19 5 -21 12 -21 82 0 43 3 81 7 85 12 11 66 -5 91 -27z m2456 -152 c4
-33 11 -89 16 -125 16 -114 61 -452 71 -540 5 -47 16 -136 24 -198 8 -62 14
-130 14 -150 -2 -50 -4 -34 -74 528 -14 113 -32 248 -40 300 -21 132 -45 332
-44 356 2 26 26 -97 33 -171z m222 89 c-4 -9 0 -24 9 -34 16 -17 35 -107 60
-280 26 -182 74 -498 105 -685 27 -166 50 -357 50 -409 0 -15 -3 -17 -9 -8 -7
11 -9 11 -14 -2 -4 -10 -17 -15 -34 -15 l-28 2 27 4 c33 5 43 32 29 76 -6 17
-15 59 -20 92 -4 33 -20 130 -34 215 -38 229 -75 464 -87 560 -19 153 -51 364
-60 405 -13 54 -12 95 1 95 6 0 8 -7 5 -16z m-1366 -1143 c63 -5 176 -19 250
-31 74 -12 257 -39 405 -60 192 -27 254 -38 215 -40 -54 -2 -53 -3 34 -15 82
-12 218 -20 241 -15 6 2 -10 6 -35 10 l-45 7 50 0 c28 1 79 -3 115 -7 l65 -7
-60 -3 c-52 -3 -45 -5 60 -15 116 -12 117 -12 45 -13 -74 -2 -333 18 -525 39
-113 12 -432 57 -455 64 -8 2 -103 14 -210 25 -432 48 -793 17 -1009 -85 -70
-34 -106 -46 -67 -24 13 8 15 13 6 19 -8 5 -7 9 5 13 9 4 13 3 10 -3 -9 -14 6
-12 35 5 15 9 19 15 10 15 -33 2 68 43 173 70 97 25 167 37 302 53 62 8 274 6
385 -2z m-2130 -30 c30 -5 89 -15 130 -22 92 -14 245 -60 297 -89 21 -12 29
-18 18 -14 -156 54 -219 74 -233 73 -9 0 34 -17 96 -39 63 -21 117 -42 120
-46 4 -4 -2 -4 -13 0 -95 35 -261 77 -360 92 -93 13 -185 18 -405 18 -309 0
-445 -9 -754 -54 -217 -31 -407 -51 -471 -49 -22 1 19 8 90 15 161 16 155 14
125 24 l-25 8 26 1 c14 1 96 12 183 26 141 22 281 39 516 65 99 11 590 4 660
-9z m4042 -30 c46 -32 63 -58 37 -56 -10 1 -22 4 -25 8 -12 11 -24 -3 -24 -29
0 -15 6 -24 15 -24 8 0 15 -4 15 -8 0 -5 12 -14 26 -21 40 -18 22 -24 -19 -6
-20 8 -54 15 -76 15 -22 0 -46 3 -55 6 -28 11 -17 25 18 21 42 -5 61 9 69 51
6 28 3 34 -17 44 -14 6 -40 8 -61 4 -40 -8 -56 -34 -48 -79 6 -31 1 -34 -21
-11 -10 9 -16 33 -16 59 0 25 -5 46 -12 49 -7 3 26 5 73 3 72 -2 91 -6 121
-26z m-1977 -56 c237 -21 321 -32 525 -65 102 -16 239 -32 305 -36 66 -3 125
-10 130 -16 10 -10 -149 -6 -280 7 -45 4 -47 4 -15 -5 34 -9 246 -40 276 -40
7 0 14 -4 14 -10 0 -5 -7 -10 -15 -10 -8 0 -15 -4 -15 -9 0 -9 72 -21 128 -21
l35 0 -7 47 c-3 27 -2 43 3 38 4 -6 11 -29 15 -52 l6 -43 -37 0 c-69 0 -255
20 -408 45 -82 13 -199 29 -260 35 -60 6 -150 15 -199 21 -49 5 -91 8 -93 5
-3 -2 22 -7 54 -11 32 -4 72 -11 88 -15 20 -6 10 -7 -30 -3 -33 4 -150 6 -260
6 -156 -1 -227 -5 -321 -22 -67 -12 -125 -21 -130 -20 -17 1 81 29 106 30 23
0 24 1 5 10 -16 7 -13 8 13 4 20 -3 31 -1 27 5 -4 6 6 10 21 10 19 0 25 3 18
10 -7 7 -21 7 -40 1 -34 -11 -104 -21 -104 -16 0 8 84 27 151 34 38 4 69 4 69
0 0 -4 -12 -10 -27 -12 -16 -3 10 -2 57 2 201 15 503 -1 745 -39 85 -13 168
-18 158 -10 -8 7 -48 13 -298 50 -132 19 -415 39 -580 41 -85 1 -317 -31 -377
-51 -18 -5 -28 -5 -28 1 0 5 -7 9 -16 9 -8 0 -12 5 -9 10 3 6 15 10 26 10 11
0 17 -4 14 -10 -7 -12 2 -12 30 0 l20 9 -20 1 c-16 0 -17 2 -5 9 25 15 125 32
189 33 34 0 61 5 61 11 0 10 -141 5 -205 -8 -68 -13 -131 -28 -140 -34 -5 -4
-23 -8 -40 -8 -25 -2 -22 0 15 13 118 39 308 70 445 72 28 1 122 -5 210 -13z
m-2065 -119 c47 -9 112 -25 145 -36 33 -11 49 -18 35 -15 -14 3 -68 14 -121
25 -111 23 -325 34 -402 20 -46 -8 -242 -21 -562 -36 -104 -5 -151 3 -132 23
5 4 12 1 16 -6 7 -10 26 -12 82 -7 41 4 113 9 160 10 47 2 128 10 180 17 l94
14 -120 6 c-66 3 29 5 210 3 253 -1 350 -6 415 -18z m2279 -40 c4 -3 111 -17
237 -31 126 -14 293 -37 372 -50 79 -14 158 -26 175 -27 27 -1 25 -2 -13 -8
-35 -5 -38 -7 -15 -9 17 0 48 -3 70 -6 32 -4 35 -3 15 4 l-25 9 27 1 c36 1 58
-8 58 -26 0 -11 -9 -13 -42 -9 -24 3 -95 13 -158 21 -63 8 -200 26 -305 41
-324 43 -444 54 -631 54 -237 0 -499 -36 -620 -84 -28 -11 -34 -12 -21 -2 9 7
17 16 17 19 0 4 -8 4 -17 1 -10 -2 2 5 26 16 68 32 267 76 421 94 47 5 418 -2
429 -8z m-2565 -27 c36 -2 -57 -11 -344 -34 -190 -14 -295 -25 -554 -55 -54
-6 -100 -9 -103 -6 -3 2 20 7 51 11 35 5 53 11 49 18 -4 7 0 8 12 4 9 -4 25
-2 33 5 12 10 14 10 8 1 -5 -9 1 -13 21 -12 25 0 26 1 8 10 -15 7 -9 8 22 5
24 -2 45 0 48 4 3 5 22 7 43 4 27 -3 32 -2 17 5 -16 7 -7 10 40 16 33 4 78 11
100 16 22 5 60 8 85 7 l45 -1 -47 -6 c-86 -12 -65 -23 32 -17 52 3 138 8 191
12 53 3 109 9 125 14 16 5 42 7 58 5 16 -3 43 -6 60 -6z m-2050 -56 c-3 -23
-2 -22 7 6 5 18 13 31 16 28 7 -8 -7 -67 -17 -67 -10 0 -15 -27 -35 -174 -9
-66 -1 -77 47 -71 16 3 26 0 23 -5 -4 -6 4 -10 17 -10 18 0 20 2 8 10 -13 8
-13 9 0 14 28 9 259 13 254 5 -3 -5 7 -9 23 -8 24 0 25 2 8 8 -17 7 -16 9 10
14 36 6 42 2 25 -18 -7 -8 -9 -16 -4 -16 34 -5 -90 -18 -176 -19 -58 -1 -145
-5 -194 -9 -63 -4 -90 -3 -93 5 -2 6 9 66 26 132 16 66 33 140 36 166 8 48 25
57 19 9z m6433 -125 c19 -73 35 -142 36 -153 2 -20 -4 -20 -241 -19 -133 1
-245 4 -249 7 -10 10 -21 87 -12 87 4 0 9 -10 11 -22 3 -21 9 -23 93 -29 50
-3 143 -5 208 -4 64 2 117 -2 117 -6 0 -5 7 -9 15 -9 8 0 15 9 15 20 0 12 -7
20 -17 20 -15 0 -15 2 -4 9 13 8 12 15 -2 51 -9 23 -13 48 -10 56 3 7 0 36 -7
63 -10 44 -7 81 7 67 3 -2 20 -64 40 -138z"/>
<path d="M3214 7155 c3 -11 6 -24 6 -28 0 -5 4 -6 9 -3 5 3 7 15 4 26 -7 28
11 25 30 -4 16 -24 16 -24 -31 -36 -75 -19 -115 -22 -106 -9 4 7 3 9 -3 6 -18
-12 -125 -18 -118 -7 3 5 0 10 -8 10 -15 0 -47 -72 -47 -107 0 -12 -5 -23 -11
-25 -7 -2 -7 -18 1 -52 8 -37 8 -52 -2 -64 -11 -13 -10 -15 5 -9 15 6 17 0 17
-44 0 -42 -3 -51 -22 -60 l-23 -10 23 5 c18 3 22 1 18 -12 -5 -18 -26 -177
-26 -200 0 -7 -4 -10 -10 -7 -5 3 -10 0 -10 -8 0 -18 -28 -42 -37 -33 -4 4 -1
12 7 17 12 9 12 10 -3 5 -10 -3 -28 -6 -40 -6 -21 -1 -20 -2 7 -26 20 -18 31
-22 36 -14 4 7 29 14 56 17 36 3 45 2 34 -6 -8 -6 -22 -8 -30 -6 -32 10 -39
-8 -24 -64 7 -29 12 -57 9 -61 -2 -4 -5 -35 -6 -69 -1 -34 -6 -64 -10 -67 -5
-3 -19 0 -31 6 -22 11 -22 10 -4 -4 11 -9 26 -16 33 -16 7 0 13 -5 13 -11 0
-32 73 -52 84 -24 3 8 0 15 -7 15 -8 0 -7 4 3 11 12 9 12 10 -3 5 -10 -3 -23
-6 -29 -6 -6 0 -8 -7 -5 -14 4 -10 1 -13 -8 -10 -19 8 -28 35 -15 48 8 8 9 6
4 -8 -5 -13 -4 -17 4 -12 7 4 12 14 12 22 0 8 9 14 20 14 11 0 20 4 20 9 0 5
6 9 13 8 37 -1 47 4 47 26 0 13 5 28 11 34 9 9 7 11 -7 7 -12 -3 -27 3 -39 15
-16 18 -16 25 -5 45 15 30 6 46 -26 46 -13 0 -24 5 -24 10 0 13 16 13 42 -1
14 -8 23 -8 31 0 19 19 31 12 14 -7 -21 -23 -22 -43 -2 -36 8 3 17 21 21 40 4
19 14 36 24 39 23 7 35 35 15 35 -8 0 -15 -4 -15 -9 0 -5 -9 -11 -21 -14 -12
-3 -18 -10 -14 -16 3 -6 0 -11 -8 -11 -11 0 -13 7 -10 23 4 13 2 19 -3 14 -5
-5 -9 -13 -9 -19 0 -7 -26 -12 -60 -13 l-60 -3 40 12 c22 6 59 21 83 33 25 13
56 20 78 19 22 -2 33 1 31 8 -2 6 -20 11 -40 11 -21 -1 -37 3 -37 7 0 8 23 11
70 9 23 -1 23 0 5 8 -14 7 -16 10 -5 11 15 2 25 4 45 10 6 1 21 2 35 1 20 -2
22 0 10 8 -13 9 -12 11 5 11 11 0 26 -4 34 -9 9 -6 29 -1 59 15 46 25 102 28
110 6 2 -7 -2 -10 -11 -6 -8 3 -18 1 -22 -5 -4 -7 4 -11 19 -11 14 0 26 5 26
10 0 6 9 10 19 10 17 0 18 -4 11 -31 -5 -18 -7 -29 -3 -26 3 4 14 2 24 -3 10
-6 20 -6 23 -1 8 12 -19 33 -29 23 -5 -4 -5 2 -1 12 4 12 0 26 -10 38 -23 24
-15 30 50 34 60 3 80 10 71 24 -6 10 -50 4 -108 -15 -20 -7 -39 -9 -42 -5 -3
5 -1 10 5 12 5 1 13 43 16 91 7 91 18 113 41 82 12 -18 13 -18 13 -1 0 10 -9
20 -20 23 -13 3 -20 14 -20 29 0 22 4 24 43 24 50 0 80 14 48 23 -12 3 -24 1
-27 -5 -4 -7 -9 -6 -14 2 -6 9 -13 9 -29 1 -20 -11 -21 -9 -21 33 0 27 6 51
16 60 8 9 11 16 6 16 -6 0 -10 17 -10 38 0 68 -2 87 -10 77 -4 -5 -24 -11 -44
-12 -32 -3 -36 0 -32 15 5 13 2 12 -13 -4 -11 -14 -35 -24 -64 -27 -42 -6 -48
-4 -67 23 -26 34 -67 38 -58 5z m227 -132 l-6 -38 -3 34 -3 34 -66 -6 c-37 -4
-73 -13 -83 -22 -9 -8 -21 -15 -26 -15 -15 0 -86 -40 -126 -72 -30 -24 -42
-43 -59 -99 -12 -38 -18 -76 -15 -84 5 -14 2 -16 -21 -15 -5 1 -11 -14 -15
-32 -4 -21 -5 -13 -2 22 2 30 7 90 11 132 6 73 16 109 27 97 3 -3 1 -32 -5
-65 -20 -110 -19 -119 7 -42 23 70 29 79 73 107 26 17 53 31 59 31 7 0 12 4
12 10 0 10 -27 3 -50 -14 -49 -36 -88 -46 -50 -13 11 9 20 14 20 10 0 -3 8 0
18 8 15 14 93 50 132 63 8 2 51 5 95 5 l81 1 -5 -37z"/>
<path d="M4481 5007 c-2 -62 -106 -84 -246 -52 -109 26 -261 44 -317 38 -29
-2 -91 -18 -137 -33 -47 -16 -89 -26 -94 -23 -6 3 -7 1 -3 -5 6 -10 -110 -80
-126 -75 -4 2 -7 -1 -5 -6 3 -14 -92 -83 -105 -75 -6 4 -8 3 -5 -3 3 -5 -9
-25 -28 -43 -22 -21 -35 -29 -35 -19 -1 10 -4 8 -11 -5 -8 -13 -8 -20 0 -25 7
-4 10 -14 8 -22 -2 -8 -2 -11 0 -6 3 4 9 5 14 1 5 -3 9 1 9 9 0 22 30 30 31 9
0 -13 3 -11 9 6 5 12 17 22 27 22 10 0 42 12 72 25 82 38 85 23 16 -77 -123
-177 -187 -257 -203 -251 -9 3 -14 3 -10 -2 10 -10 -11 -37 -23 -29 -5 3 -9
-4 -9 -16 0 -13 -4 -19 -12 -14 -7 4 -8 3 -4 -5 4 -6 12 -9 17 -6 5 4 23 -3
39 -15 23 -16 28 -25 21 -38 -8 -16 10 -48 21 -37 2 3 12 -19 23 -48 10 -28
24 -59 31 -68 17 -19 18 -33 2 -23 -7 4 -8 3 -4 -5 4 -6 11 -9 16 -6 10 6 45
-46 42 -65 -1 -10 0 -11 4 -2 5 10 9 10 20 1 20 -16 18 -22 -22 -65 -48 -53
-60 -74 -37 -69 10 2 31 8 46 14 46 18 108 13 198 -16 46 -14 129 -34 184 -44
55 -9 94 -18 88 -18 -7 -1 -13 -5 -13 -9 0 -5 28 -9 63 -9 51 0 54 1 15 4 -46
4 -69 23 -28 23 10 0 44 9 74 20 58 22 106 67 146 138 13 23 27 39 32 36 5 -3
9 0 7 7 -3 26 1 40 10 35 5 -3 12 1 15 10 3 9 2 12 -5 8 -6 -3 -10 1 -9 12 5
43 -2 44 -49 4 -27 -23 -61 -43 -74 -44 -14 0 -23 -4 -21 -8 5 -8 -34 -15
-113 -22 -29 -2 -55 0 -58 4 -3 5 -12 7 -20 3 -9 -3 -31 -2 -50 1 l-35 7 0
152 c0 102 4 147 10 137 8 -12 10 -9 10 13 0 31 4 31 66 16 41 -11 50 -22 45
-52 -1 -5 3 -6 9 -2 5 3 10 14 10 23 0 14 4 13 22 -6 19 -19 21 -26 11 -51
-10 -27 -9 -29 9 -26 11 3 31 11 44 20 27 17 104 112 104 126 0 6 3 8 8 6 4
-3 8 5 8 16 1 12 7 40 13 62 20 78 -4 145 -60 169 -16 7 -26 15 -23 19 4 3 -8
2 -26 -3 -35 -10 -51 -20 -31 -20 21 0 61 -48 61 -73 0 -38 -40 -49 -156 -43
-55 3 -107 5 -116 5 -16 1 -18 14 -18 136 0 88 4 135 11 135 5 0 8 4 5 8 -6
11 39 6 137 -15 49 -10 73 -19 65 -25 -8 -5 -2 -7 17 -6 17 1 46 1 65 -1 30
-2 32 -4 15 -12 -18 -8 -17 -9 5 -5 14 3 45 8 70 12 103 16 234 101 260 170
12 31 3 74 -15 74 -8 0 -16 8 -18 18 -3 10 -5 6 -6 -11z m-623 -339 c-3 -131
-5 -151 -19 -153 -9 -2 -26 -6 -38 -10 -21 -6 -21 -5 -21 148 0 84 3 157 7
160 3 4 21 7 40 7 l34 0 -3 -152z m-217 -8 c-6 -28 -11 -100 -11 -160 l0 -108
-30 -11 c-16 -5 -30 -15 -30 -21 0 -6 -5 -8 -10 -5 -14 9 -3 142 17 215 16 60
61 155 70 147 3 -3 0 -29 -6 -57z m218 -451 c-4 -181 -3 -177 -56 -163 -23 6
-23 9 -23 168 0 90 2 165 5 167 2 3 21 3 41 1 l36 -4 -3 -169z m-194 37 c10
-27 37 -77 61 -112 47 -68 43 -75 -22 -45 -67 30 -134 127 -134 193 0 11 13
24 33 32 36 15 31 20 62 -68z"/>
<path d="M5828 4949 c-7 -16 -120 -79 -130 -73 -6 4 -8 3 -4 -4 3 -5 -10 -20
-29 -32 -57 -35 -86 -74 -52 -69 53 7 57 -20 57 -376 0 -279 -2 -314 -16 -319
-12 -5 -14 -10 -5 -20 6 -7 8 -16 4 -19 -3 -4 -2 -7 4 -7 6 0 14 -12 18 -27 3
-16 14 -36 23 -46 14 -16 14 -20 2 -28 -13 -9 -13 -10 0 -6 8 2 28 -7 43 -19
36 -30 39 -30 79 4 18 16 58 47 89 70 45 32 59 38 70 29 11 -10 12 -9 2 2 -6
7 -9 20 -6 27 4 10 -4 14 -30 14 -22 0 -37 6 -41 15 -3 8 -11 15 -17 15 -8 0
-8 -4 1 -15 8 -10 9 -15 1 -15 -21 0 -25 60 -25 415 -1 389 1 405 50 405 32 0
74 28 68 45 -3 7 -19 15 -35 19 -17 3 -28 9 -26 13 3 5 -17 8 -44 8 -27 0 -50
-3 -51 -6z"/>
<path d="M5416 4842 c-10 -13 -24 -21 -32 -18 -7 3 -16 0 -20 -6 -5 -7 -2 -8
7 -4 8 4 1 -3 -16 -16 -58 -45 -81 -71 -65 -76 20 -6 89 -72 101 -97 9 -18 9
-19 -4 -2 -8 9 -18 17 -22 17 -4 0 -2 -6 4 -13 6 -8 9 -17 6 -20 -3 -4 -2 -5
1 -2 4 2 16 0 27 -6 13 -8 17 -8 13 -1 -7 12 50 59 66 54 5 -1 7 2 4 7 -3 4
12 20 34 35 36 23 54 56 32 56 -5 0 -15 11 -22 25 -7 14 -19 25 -26 25 -6 0
-25 15 -41 33 l-29 33 -18 -24z"/>
<path d="M5116 4810 c-22 -10 -43 -17 -49 -13 -6 3 -7 1 -3 -5 7 -11 -26 -35
-38 -27 -3 3 -4 2 -1 -2 8 -10 -64 -55 -78 -47 -6 4 -9 3 -4 -1 4 -5 0 -16 -9
-26 -17 -19 -11 -39 12 -39 18 0 20 -79 2 -102 -40 -48 -128 -80 -128 -47 0 6
-4 7 -10 4 -5 -3 -33 13 -61 35 -29 23 -65 48 -81 56 -16 8 -26 19 -23 24 3 5
-8 5 -26 0 -18 -5 -36 -7 -42 -3 -6 3 -7 2 -4 -4 8 -13 -129 -96 -144 -87 -7
4 -9 3 -6 -3 8 -13 -50 -56 -65 -47 -6 4 -8 3 -5 -3 4 -6 -1 -26 -10 -44 -10
-19 -18 -56 -19 -84 -1 -31 1 -42 5 -30 7 17 9 16 16 -10 5 -17 7 -34 6 -40
-2 -5 1 -7 5 -3 4 4 20 -2 36 -13 15 -11 53 -33 83 -48 30 -15 52 -32 47 -36
-4 -5 -1 -5 6 -1 15 9 124 -43 116 -55 -2 -4 6 -13 18 -20 22 -11 22 -11 9 7
-7 10 -2 7 12 -8 44 -47 18 -80 -51 -63 -21 5 -23 8 -11 17 11 8 10 9 -4 4
-22 -7 -120 52 -111 66 3 5 2 8 -3 7 -22 -4 -34 2 -27 14 4 6 4 9 -1 5 -4 -4
-17 -1 -29 7 -26 19 -36 19 -36 0 0 -14 -12 -20 -33 -16 -5 1 -6 -3 -2 -8 3
-6 -17 -26 -45 -44 -29 -19 -47 -38 -42 -41 6 -3 13 0 15 6 4 9 6 8 6 -2 1
-20 28 -42 95 -80 30 -17 66 -42 80 -55 15 -14 30 -25 34 -25 4 -1 17 -3 30
-7 13 -3 33 2 47 11 14 9 31 14 37 10 6 -4 8 -3 5 3 -6 9 72 73 88 73 4 0 30
17 58 37 61 45 91 105 81 159 -8 42 -70 110 -115 126 -16 5 -29 14 -29 20 0 5
-4 7 -10 3 -5 -3 -17 -1 -27 5 -10 5 -31 14 -46 20 -17 6 -25 14 -21 22 4 7 3
8 -4 4 -26 -16 -112 54 -112 91 0 17 6 23 22 23 28 0 118 -58 118 -76 0 -8 7
-14 15 -14 8 0 15 -4 15 -10 0 -34 116 22 160 77 11 14 20 21 20 16 0 -6 -7
-16 -15 -23 -18 -15 -20 -34 -2 -23 21 13 38 12 44 -3 3 -8 14 -14 24 -14 21
0 26 16 7 23 -7 3 1 6 18 6 18 1 34 -5 37 -12 3 -7 3 -110 2 -229 l-4 -217 32
-34 c18 -18 44 -41 59 -51 27 -17 28 -17 65 10 21 16 63 49 93 74 89 73 91 83
16 75 -43 -5 -55 -3 -60 10 -4 11 -2 14 6 9 6 -4 4 3 -5 17 -14 19 -17 48 -16
164 0 77 4 149 9 160 5 11 9 16 9 11 1 -5 7 -4 14 1 18 15 57 22 57 11 0 -5
14 -7 33 -4 22 4 26 3 12 -2 -19 -9 -19 -9 0 -19 11 -6 26 -8 33 -6 14 5 15 0
16 -238 1 -148 4 -180 17 -195 9 -11 14 -25 11 -33 -3 -8 0 -11 7 -7 6 4 11 2
11 -4 0 -6 4 -9 9 -6 5 3 16 -5 25 -19 9 -14 21 -25 26 -25 6 0 36 20 67 44
32 25 80 56 107 69 28 14 44 27 37 31 -6 4 -9 12 -6 17 3 5 0 6 -8 3 -8 -3
-21 2 -30 11 -14 14 -17 14 -25 -2 -8 -14 -12 -12 -26 15 -18 34 -22 128 -17
331 l3 105 -50 48 c-28 26 -53 53 -55 60 -3 7 -6 4 -6 -8 -1 -26 -36 -59 -52
-48 -7 4 -10 3 -5 -4 12 -19 -28 -32 -65 -22 -19 6 -56 11 -84 11 -49 2 -49 2
-15 10 32 7 31 8 -12 5 l-48 -4 0 123 c0 109 2 124 18 128 16 4 16 5 -1 6 -10
0 -15 6 -12 11 9 14 5 13 -39 -10z"/>
<path d="M6071 4564 c-24 -19 -47 -31 -51 -29 -5 3 -12 0 -16 -6 -5 -8 -2 -10
7 -4 8 4 1 -4 -16 -19 -29 -25 -34 -27 -55 -30 -21 -2 -10 -20 22 -36 18 -9
32 -22 31 -28 -2 -7 1 -12 6 -12 6 0 10 -77 11 -177 2 -196 3 -223 9 -217 5 5
31 -45 31 -60 0 -6 -5 -4 -11 4 -9 13 -10 13 -6 0 2 -8 12 -14 22 -12 11 2 14
-1 9 -9 -4 -7 -3 -10 3 -6 6 4 21 -5 33 -18 13 -14 29 -25 37 -25 12 0 151 97
181 127 19 19 28 16 47 -14 20 -32 103 -113 115 -113 4 0 24 14 45 30 36 28
49 34 68 31 5 -1 6 3 2 8 -7 12 74 73 86 65 5 -3 6 3 2 12 -4 12 -3 15 5 10 7
-4 12 -3 12 3 0 16 -33 18 -61 5 -22 -11 -30 -11 -45 1 -17 12 -19 31 -22 191
-2 118 1 193 9 221 10 37 9 46 -5 61 -9 10 -16 24 -16 30 0 7 -6 12 -13 12 -8
0 -22 9 -32 20 -10 11 -23 20 -30 20 -13 0 -146 -92 -165 -114 -10 -13 -9 -17
4 -22 36 -14 46 -58 46 -194 0 -71 -4 -130 -8 -130 -5 0 -8 -10 -8 -22 1 -14
-11 -30 -33 -45 -44 -30 -55 -29 -86 4 -28 31 -28 32 -26 292 1 105 -2 140
-14 158 -9 13 -12 23 -8 23 5 0 -2 6 -13 13 -12 6 -30 17 -40 23 -16 10 -26 6
-63 -22z"/>
<path d="M3196 4002 c-13 -12 -5 -31 15 -37 17 -6 19 -9 8 -16 -11 -7 -11 -9
3 -9 18 0 33 -33 23 -50 -14 -23 -166 -4 -240 30 -43 20 -166 48 -192 44 -171
-28 -350 -115 -503 -243 -30 -25 -59 -45 -65 -43 -5 2 -7 0 -3 -3 7 -7 -34
-63 -89 -123 -13 -14 -23 -29 -23 -34 0 -5 -4 -7 -9 -4 -5 3 -8 -2 -7 -12 0
-9 -5 -16 -12 -14 -8 1 -11 -1 -8 -6 3 -4 -7 -39 -21 -78 -19 -53 -27 -97 -32
-186 -3 -64 -3 -114 2 -111 6 4 11 -24 10 -69 0 -10 2 -16 5 -14 6 7 71 -127
66 -136 -3 -5 -1 -7 4 -6 5 2 22 -13 38 -32 16 -19 24 -31 17 -27 -6 4 -14 3
-18 -3 -5 -9 7 -14 27 -11 4 0 24 -15 45 -34 21 -19 42 -35 46 -35 5 0 5 -4 2
-10 -3 -6 1 -7 9 -4 10 4 20 -3 27 -20 7 -14 17 -26 22 -26 5 0 4 7 -3 15 -8
10 6 7 41 -10 30 -14 62 -25 72 -25 10 0 16 -3 14 -7 -6 -10 21 -12 156 -15
164 -3 282 32 398 120 39 29 76 49 82 45 7 -3 9 -2 4 2 -10 12 52 75 74 75 9
0 24 -11 33 -25 15 -23 15 -24 -1 -18 -10 3 -15 3 -11 -1 3 -4 12 -8 20 -9 7
-2 24 -10 38 -20 27 -19 56 -22 65 -7 3 5 13 7 23 4 12 -4 13 -3 5 3 -9 7 0
20 34 49 48 40 94 74 81 59 -4 -4 8 -27 27 -50 19 -23 31 -46 27 -50 -4 -5 -1
-5 6 -1 6 4 12 2 12 -3 0 -22 56 -11 81 15 30 32 115 92 104 73 -8 -12 -6 -12
8 0 15 12 21 9 19 -10 -1 -4 10 -6 23 -6 25 0 92 -50 88 -64 -2 -5 5 -5 14 -2
12 5 14 3 8 -8 -4 -8 -5 -11 0 -7 4 4 21 0 37 -8 27 -14 66 -11 78 6 3 3 23
17 45 31 22 13 70 46 107 73 74 54 104 105 94 161 -3 16 -5 33 -3 36 1 4 -16
22 -38 40 -23 19 -43 39 -45 44 -2 6 -22 16 -44 24 -46 15 -68 30 -61 40 2 4
-2 8 -10 8 -8 0 -12 -4 -9 -8 13 -21 -87 26 -112 53 -16 17 -23 28 -17 24 10
-6 11 -1 3 19 -12 31 -6 47 15 39 7 -3 11 -13 8 -22 -4 -13 -3 -14 5 -4 8 12
15 11 41 -3 28 -14 31 -18 19 -33 -9 -11 -10 -14 0 -8 7 4 12 2 12 -5 0 -9 3
-9 14 0 12 10 18 7 32 -14 13 -20 23 -25 38 -20 12 4 27 7 34 7 6 1 10 4 7 6
-9 9 35 33 47 26 7 -4 8 -3 4 5 -5 7 5 17 28 26 86 36 96 21 96 -154 0 -87 -4
-141 -10 -141 -5 0 -10 -10 -9 -22 0 -22 1 -22 8 -3 8 19 15 -30 23 -162 2
-31 6 -39 15 -31 7 6 10 15 6 22 -3 6 6 0 20 -13 15 -13 25 -27 23 -30 -9 -14
67 -10 89 5 13 8 27 15 30 14 4 -1 10 2 13 6 4 4 1 4 -5 0 -31 -18 -9 6 32 34
25 17 57 42 71 55 26 24 44 25 44 2 0 -7 -4 -6 -10 3 -8 13 -10 13 -10 -1 0
-9 8 -23 17 -30 15 -12 16 -12 8 1 -4 8 16 -11 46 -42 30 -32 59 -58 64 -58 6
0 3 5 -5 10 -8 5 -10 10 -4 10 5 0 19 -7 30 -15 28 -21 65 -18 106 10 21 14
41 24 45 23 4 -1 39 28 76 65 38 37 73 64 78 61 5 -3 9 0 9 5 0 6 -4 11 -9 11
-6 0 -6 12 -1 31 8 27 7 30 -8 24 -9 -4 -23 -8 -30 -9 -7 -1 -18 -8 -25 -16
-9 -11 -8 -11 8 0 19 14 19 14 6 -3 -21 -26 -81 -55 -116 -55 -38 0 -68 16
-59 30 4 7 3 8 -4 4 -7 -4 -20 6 -32 26 -20 34 -27 74 -11 64 5 -4 12 0 14 6
4 10 8 9 17 -2 10 -13 11 -13 7 0 -2 10 22 31 72 63 42 27 86 59 99 70 20 18
24 19 32 7 7 -10 10 -11 10 -2 0 22 2 27 11 38 6 7 4 25 -6 47 -8 20 -16 52
-17 71 -2 19 -5 33 -7 30 -2 -2 -16 14 -31 34 -15 21 -40 46 -55 56 -27 17
-30 18 -57 2 -15 -10 -33 -14 -40 -10 -6 4 -8 3 -5 -3 3 -5 -45 -40 -108 -78
-153 -91 -159 -102 -154 -293 4 -134 4 -137 -19 -148 -12 -6 -34 -9 -47 -6
-37 7 -46 57 -43 229 l3 148 60 32 c62 33 105 73 105 99 0 11 -16 14 -76 13
-84 -1 -94 5 -94 56 0 17 -3 53 -6 81 -5 39 -3 54 10 66 15 15 14 17 -6 22
-20 4 86 -3 132 -9 103 -13 170 -30 170 -41 0 -8 10 -14 23 -13 21 0 21 1 2
10 -15 7 -12 8 15 4 19 -3 54 -8 77 -12 28 -4 40 -10 36 -17 -4 -6 2 -4 12 4
13 10 16 11 11 2 -6 -10 -3 -13 10 -11 11 2 25 0 32 -4 12 -8 16 -3 25 40 4
19 -2 23 -67 37 -39 8 -89 18 -111 21 -22 4 -87 15 -145 26 -124 22 -190 29
-190 19 0 -4 28 -10 63 -13 99 -9 349 -57 382 -72 l30 -15 -32 0 c-17 0 -87
11 -155 24 -68 14 -150 27 -183 31 -33 3 -73 8 -90 10 -39 6 -325 33 -495 46
-74 6 -220 11 -323 11 -108 1 -183 4 -175 9 21 14 0 10 -76 -12 -100 -30 -125
-44 -119 -68 5 -21 29 -18 48 5 18 24 183 47 330 48 163 0 410 -12 475 -24 25
-5 88 -12 140 -16 52 -5 85 -10 73 -12 -13 -2 -23 -8 -23 -13 0 -5 12 -7 28
-4 26 6 25 5 -13 -29 -22 -19 -56 -43 -75 -53 -19 -10 -41 -24 -49 -32 -13
-12 -13 -15 0 -25 8 -6 16 -30 17 -52 2 -38 -1 -44 -39 -72 l-41 -31 -46 26
c-90 49 -112 65 -106 75 4 6 2 8 -3 5 -6 -4 -27 0 -46 8 -23 10 -38 11 -42 5
-4 -6 -11 -7 -17 -4 -7 4 -8 2 -4 -4 8 -13 -28 -35 -39 -24 -3 4 -5 2 -3 -4 2
-6 -35 -39 -81 -73 -52 -39 -87 -74 -94 -92 -6 -16 -14 -29 -18 -29 -13 0 10
-73 32 -103 12 -16 17 -27 10 -23 -6 4 -9 2 -5 -7 7 -19 49 -41 62 -33 6 3 12
1 14 -4 2 -6 10 -12 18 -14 25 -5 70 -25 70 -31 0 -4 -5 -3 -11 1 -7 4 -10 1
-7 -7 3 -8 11 -13 18 -11 8 2 10 -3 6 -14 -5 -14 -4 -15 9 -4 18 15 69 5 59
-12 -4 -6 -1 -9 7 -6 20 7 51 -11 43 -25 -4 -7 -3 -9 1 -4 5 4 17 0 27 -10 19
-17 24 -48 8 -58 -13 -8 -90 13 -90 25 0 6 -5 10 -12 10 -21 0 -88 52 -81 63
3 6 1 7 -6 3 -6 -4 -23 2 -37 13 -26 21 -26 21 -54 1 -15 -11 -30 -16 -34 -12
-4 4 -6 2 -4 -4 4 -16 -49 -64 -72 -64 -11 0 -27 11 -36 26 -14 21 -17 53 -16
207 0 106 5 194 11 210 9 22 8 31 -3 42 -7 8 -16 12 -19 9 -5 -5 -146 42 -156
52 -3 4 5 3 18 -1 15 -5 21 -4 17 3 -3 6 -33 10 -67 10 -33 -1 -55 -5 -48 -9
8 -5 5 -10 -9 -18 -27 -14 -35 -14 -26 1 4 7 3 8 -5 4 -6 -4 -9 -11 -6 -15 2
-5 -25 -28 -62 -51 -90 -59 -164 -134 -172 -175 -10 -53 -2 -203 13 -244 9
-24 13 -48 9 -54 -3 -6 -1 -7 5 -3 22 13 12 -20 -10 -40 -33 -28 -64 -44 -117
-60 -60 -18 -72 -18 -64 3 4 11 3 14 -5 9 -7 -4 -12 -14 -12 -22 0 -8 -11 -14
-27 -15 -47 -2 -137 3 -146 8 -8 5 -10 905 -1 927 5 14 50 10 60 -5 3 -5 14
-9 25 -9 11 0 17 -4 14 -10 -3 -5 0 -7 8 -4 20 7 150 -53 142 -66 -3 -6 0 -7
9 -4 20 8 22 -35 4 -58 -16 -19 -48 -31 -48 -17 0 6 -4 8 -9 4 -5 -3 -9 -19
-9 -36 1 -18 4 -25 9 -18 6 10 13 9 33 -4 29 -19 40 -22 31 -7 -3 6 1 10 9 10
21 0 86 38 124 74 34 32 116 146 145 203 26 50 22 105 -10 139 -15 16 -26 33
-25 37 1 5 -3 7 -10 4 -7 -2 -25 -1 -40 4 -14 4 -29 5 -32 1z m-461 -194 c6
-6 10 -181 10 -488 0 -475 0 -480 -20 -474 -150 47 -324 251 -365 429 -21 90
3 235 56 341 27 53 136 184 154 184 9 0 2 -131 -11 -188 -14 -63 -44 -103
-111 -146 l-60 -38 39 -24 c54 -32 98 -104 128 -208 14 -48 25 -96 25 -105 0
-23 54 -134 73 -150 16 -12 17 19 17 443 l0 456 28 -12 c15 -7 32 -16 37 -20z
m-500 -281 c-19 -65 -28 -168 -16 -197 5 -14 10 -19 11 -10 1 8 8 -21 16 -65
22 -121 79 -233 159 -311 107 -103 186 -137 360 -153 l80 -8 -67 -2 c-159 -3
-298 52 -416 163 -57 54 -82 88 -113 150 -22 45 -37 68 -33 51 8 -36 68 -156
103 -205 24 -33 22 -33 -21 9 -51 48 -99 130 -118 199 -14 53 -14 203 -1 263
10 44 57 159 65 159 2 0 -2 -20 -9 -43z m1192 -159 c12 -13 16 -48 19 -180 4
-174 1 -203 -23 -213 -20 -7 -55 4 -48 15 3 4 -2 11 -11 14 -56 21 -74 295
-23 360 22 28 60 29 86 4z m1429 -20 c-4 7 -2 12 4 12 6 0 18 -16 26 -35 16
-38 19 -99 5 -91 -5 4 -7 -2 -5 -11 3 -13 -8 -26 -38 -45 l-43 -27 -3 74 c-3
89 17 146 46 123 11 -9 14 -10 8 0z"/>
<path d="M7305 3862 c28 -9 52 -20 53 -24 2 -5 10 -8 17 -8 18 0 75 -58 75
-76 0 -21 -21 -17 -27 5 -6 23 -54 46 -140 67 -50 12 -111 16 -233 15 -186 -2
-272 -13 -580 -76 -397 -81 -438 -88 -597 -100 -70 -5 -86 9 -22 20 22 4 38 9
35 12 -3 3 -27 0 -53 -6 -26 -6 -59 -13 -73 -15 -25 -4 -28 -19 -8 -43 11 -14
32 -18 24 -5 -3 4 57 13 132 20 75 6 160 16 187 22 52 11 419 82 515 100 341
62 533 72 685 33 126 -31 142 -102 32 -148 -72 -30 -176 -10 -160 32 4 11 3
14 -5 9 -8 -4 -12 0 -12 10 0 13 -3 15 -11 7 -7 -7 -9 -22 -4 -40 5 -15 9 -31
9 -35 2 -15 55 -47 90 -53 26 -5 34 -10 24 -16 -10 -7 -9 -9 5 -9 9 0 17 3 17
8 0 7 92 44 105 42 3 0 23 20 45 45 48 56 54 107 18 150 -23 25 -142 76 -176
74 -9 0 6 -8 33 -17z"/>
<path d="M5285 3837 c-16 -38 -51 -70 -143 -130 -36 -23 -41 -30 -32 -47 5
-10 10 -28 10 -39 0 -12 5 -21 11 -21 5 0 7 5 4 10 -3 6 -2 10 4 10 11 0 20
-280 9 -296 -4 -6 -5 -14 -1 -17 7 -8 5 -360 -3 -392 -3 -12 5 -30 21 -47 14
-15 25 -32 25 -38 0 -6 4 -9 9 -5 6 3 15 -4 21 -15 15 -27 38 -25 84 10 21 16
43 27 49 23 6 -3 7 -2 4 3 -3 5 9 19 26 31 54 37 63 37 88 1 13 -18 23 -34 21
-35 -1 -2 1 -3 4 -2 3 1 19 -11 35 -27 34 -32 36 -32 144 46 38 27 72 50 75
50 3 0 14 -15 25 -32 10 -18 27 -39 37 -46 10 -7 15 -19 12 -25 -4 -7 -3 -9 1
-4 5 4 16 0 26 -9 17 -15 20 -15 47 5 16 11 32 18 36 14 3 -3 6 0 6 8 0 8 24
31 53 52 l52 37 17 -22 c10 -13 18 -27 18 -31 0 -12 53 -56 68 -57 7 0 46 25
86 55 65 49 106 70 92 46 -3 -5 3 -11 13 -14 15 -3 18 -1 14 12 -3 9 9 -6 26
-32 17 -26 31 -52 31 -57 0 -4 14 -11 31 -15 25 -6 36 -2 58 19 27 26 48 35
36 16 -3 -6 1 -7 10 -3 11 4 13 8 5 13 -6 4 6 18 32 36 24 16 46 33 49 38 4 4
9 2 11 -5 3 -8 7 -5 10 9 4 12 2 20 -2 17 -5 -3 -11 3 -13 12 -4 17 -5 17 -6
1 0 -10 -5 -18 -10 -18 -5 0 -18 8 -30 18 -19 15 -22 29 -25 118 -3 122 5 190
23 186 7 -1 10 1 7 6 -3 5 6 20 19 32 22 21 27 22 50 10 16 -9 25 -23 26 -39
1 -14 3 -42 4 -61 1 -19 -1 -91 -5 -160 -6 -88 -4 -129 4 -139 9 -12 8 -13 -3
-6 -10 5 -12 4 -7 -3 4 -7 14 -12 22 -12 8 0 15 -4 15 -10 1 -5 2 -16 3 -22 0
-7 6 -13 11 -13 18 0 36 -16 29 -26 -3 -5 0 -8 7 -7 7 2 17 -6 23 -18 l11 -20
24 22 c13 12 31 20 40 17 12 -3 13 -2 3 4 -9 7 7 24 57 61 39 29 77 52 85 52
9 0 16 5 16 10 0 6 -4 10 -10 10 -5 0 -10 7 -10 15 0 12 -4 13 -19 5 -11 -5
-27 -7 -37 -3 -12 4 -15 3 -10 -5 4 -8 1 -12 -10 -12 -10 0 -14 3 -11 7 4 3
-1 12 -11 19 -15 11 -17 34 -18 211 0 184 -8 273 -22 259 -3 -4 -20 7 -37 24
-49 47 -82 48 -132 5 -25 -21 -48 -33 -54 -29 -7 4 -9 3 -6 -4 4 -5 -12 -24
-35 -41 l-42 -31 -14 43 c-15 45 -35 73 -65 89 -15 8 -30 2 -72 -26 -34 -22
-61 -33 -72 -30 -15 5 -15 4 -3 -5 12 -9 12 -11 -2 -16 -28 -11 -30 -36 -4
-56 32 -25 40 -100 31 -274 l-7 -132 -46 1 c-43 1 -48 4 -64 36 -15 29 -18 63
-18 201 0 115 4 169 12 177 7 7 8 12 3 12 -5 0 0 6 11 14 18 14 18 15 1 28
-11 8 -50 25 -88 38 -38 13 -74 29 -80 36 -6 8 -15 12 -19 9 -5 -3 -11 -1 -15
5 -8 12 -45 13 -45 1 0 -11 -100 -74 -117 -74 -7 0 -11 -3 -10 -7 3 -9 -129
-110 -137 -104 -3 2 -4 1 -1 -2 2 -4 -2 -19 -10 -34 -8 -16 -17 -61 -20 -102
-3 -40 -8 -93 -10 -118 -3 -32 -2 -41 5 -30 7 11 10 7 11 -20 1 -19 1 -41 0
-47 -1 -7 4 -13 11 -14 7 0 2 -5 -11 -10 -19 -7 -27 -5 -42 12 -18 21 -19 45
-19 401 0 365 1 379 20 398 11 11 31 20 44 20 44 0 33 24 -23 53 -74 38 -90
41 -83 15 3 -14 1 -19 -6 -14 -7 4 -12 1 -12 -7 0 -17 -133 -121 -167 -132
-13 -3 -23 -9 -23 -13 1 -12 28 -43 37 -42 4 1 11 -9 15 -22 9 -35 8 -630 -2
-653 -5 -11 -9 -15 -9 -8 -1 13 -41 5 -41 -8 0 -21 -41 -7 -50 17 -6 15 -10
182 -10 403 0 406 -1 396 50 406 13 2 25 6 27 9 7 6 -43 56 -56 56 -7 0 -25 7
-42 15 -30 16 -30 16 -44 -18z m727 -484 c22 -36 23 -45 20 -197 -2 -96 -7
-165 -14 -173 -13 -16 -52 -18 -42 -1 5 8 2 9 -10 5 -14 -6 -17 -3 -12 8 3 9
2 13 -4 10 -18 -11 -42 70 -47 161 -6 106 -1 146 27 192 26 43 53 41 82 -5z"/>
<path d="M7285 3483 c-33 -18 -67 -30 -75 -27 -8 3 -11 2 -8 -2 4 -3 -19 -23
-50 -44 -136 -92 -167 -139 -166 -260 1 -106 6 -160 15 -154 4 2 10 -7 13 -20
3 -13 26 -46 51 -73 24 -28 42 -53 40 -57 -3 -3 -2 -4 2 -1 3 3 20 -4 37 -14
53 -33 104 -42 142 -26 58 24 207 126 253 175 51 51 81 121 81 186 0 80 -46
191 -98 238 -12 10 -19 23 -16 28 3 4 2 7 -3 6 -14 -4 -74 32 -68 41 3 5 -3 7
-13 4 -11 -2 -25 2 -33 9 -26 26 -44 24 -104 -9z m2 -137 c-1 -6 4 -10 11 -8
8 1 11 -2 8 -7 -7 -11 20 -35 32 -27 4 3 17 -9 27 -26 10 -17 13 -28 7 -24 -6
4 -8 -2 -5 -15 4 -14 8 -17 13 -8 13 19 33 -30 34 -82 1 -26 4 -45 9 -42 20
12 -6 -122 -29 -148 -32 -35 -150 -5 -128 33 4 7 4 10 -1 6 -4 -4 -14 -3 -22
3 -16 14 -18 33 -1 23 7 -4 8 -3 4 5 -4 6 -11 9 -16 6 -8 -5 -29 38 -34 68 -1
9 -5 20 -9 23 -14 14 -7 164 8 194 22 42 53 61 76 47 10 -6 17 -16 16 -21z"/>
<path d="M5034 2755 c-12 -8 -25 -11 -29 -7 -3 4 -5 1 -3 -7 2 -8 -11 -24 -29
-36 -28 -20 -38 -21 -90 -13 -32 5 -66 14 -77 19 -13 7 -16 7 -11 0 3 -6 1
-11 -4 -11 -6 0 -11 5 -11 11 0 5 -4 8 -9 5 -4 -3 -48 -1 -97 5 -95 11 -735
16 -769 6 -11 -3 -72 -8 -135 -12 -130 -6 -497 -41 -580 -55 -47 -7 -146 -20
-202 -25 -10 -1 -21 -4 -24 -8 -4 -4 -23 -7 -41 -7 -24 0 -32 4 -28 13 4 6 0
4 -8 -5 -8 -10 -21 -18 -30 -18 -33 0 -25 -18 9 -22 19 -2 37 0 40 4 8 13 92
9 97 -4 4 -9 6 -7 6 3 1 14 34 18 239 28 323 17 846 18 1002 2 181 -18 426
-73 415 -92 -3 -4 3 -5 13 -2 11 2 26 -2 34 -11 9 -8 18 -12 22 -9 3 3 14 -2
25 -11 25 -23 51 -17 78 18 l23 29 -34 23 c-32 22 -143 55 -234 69 -73 12 -32
23 48 14 165 -20 320 -78 320 -120 0 -9 7 -20 16 -23 15 -6 15 -4 3 11 -12 15
-11 15 8 -1 13 -10 20 -22 18 -26 -3 -4 1 -10 8 -13 20 -8 51 -67 35 -67 -9 0
-9 -3 2 -10 19 -13 43 -13 35 0 -11 18 64 110 151 183 26 21 88 41 78 25 -5
-7 -1 -9 9 -5 9 3 19 1 23 -5 4 -7 3 -8 -4 -4 -7 4 -12 2 -12 -3 0 -6 -7 -11
-15 -11 -8 0 -24 -9 -34 -19 -11 -11 -21 -19 -23 -18 -2 1 2 -3 8 -8 7 -6 13
-19 15 -29 7 -33 43 -37 82 -10 82 55 357 118 587 133 259 16 919 -5 1195 -39
44 -6 86 -10 95 -10 13 0 13 -1 0 -10 -11 -7 -7 -10 18 -10 17 0 32 5 32 11 0
6 9 9 20 6 11 -3 23 -1 26 4 8 14 -46 32 -89 30 -26 -1 -39 3 -43 14 -3 8 -14
15 -23 15 -14 0 -14 -2 -1 -10 11 -8 9 -9 -10 -5 -52 11 -294 45 -322 45 -16
0 -27 4 -23 9 3 6 -4 8 -15 6 -22 -4 -266 14 -290 22 -8 3 -78 7 -155 9 -77 3
-151 7 -165 9 -48 9 -586 5 -695 -5 -140 -13 -245 -30 -269 -42 -13 -7 -16 -7
-12 1 4 6 0 11 -11 11 -10 0 -45 18 -78 40 -67 45 -72 46 -101 25z"/>
</g>
</svg>
